<?xml version="1.0" encoding="UTF-8" standalone="no"?>
<svg
   xmlns:dc="http://purl.org/dc/elements/1.1/"
   xmlns:cc="http://creativecommons.org/ns#"
   xmlns:rdf="http://www.w3.org/1999/02/22-rdf-syntax-ns#"
   xmlns:svg="http://www.w3.org/2000/svg"
   xmlns="http://www.w3.org/2000/svg"
   viewBox="0 0 276 274.9754"
   height="274.9754"
   width="276"
   xml:space="preserve"
   version="1.1"
   id="svg2"><metadata
     id="metadata8"><rdf:RDF><cc:Work
         rdf:about=""><dc:format>image/svg+xml</dc:format><dc:type
           rdf:resource="http://purl.org/dc/dcmitype/StillImage" /><dc:title></dc:title></cc:Work></rdf:RDF></metadata><defs
     id="defs6"><linearGradient
       id="linearGradient30"
       gradientTransform="matrix(0.707107,0.707107,-0.707107,0.707107,-0.157882,0.075118)"
       gradientUnits="userSpaceOnUse"
       y2="91.312004"
       x2="651.42102"
       y1="91.312004"
       x1="283.979"><stop
         id="stop32"
         offset="0"
         style="stop-opacity:1;stop-color:#d2ab67" /><stop
         id="stop34"
         offset="1"
         style="stop-opacity:1;stop-color:#e7cfa8" /></linearGradient><linearGradient
       id="linearGradient40"
       gradientTransform="matrix(0.707107,0.707107,-0.707107,0.707107,-0.157882,0.075118)"
       gradientUnits="userSpaceOnUse"
       y2="91.312004"
       x2="787.32404"
       y1="91.312004"
       x1="651.42102"><stop
         id="stop42"
         offset="0"
         style="stop-opacity:1;stop-color:#e7cfa8" /><stop
         id="stop44"
         offset="1"
         style="stop-opacity:1;stop-color:#ffffff" /></linearGradient><radialGradient
       id="radialGradient162"
       gradientTransform="translate(-0.157882,0.075118)"
       gradientUnits="userSpaceOnUse"
       r="29.501001"
       cy="504.70999"
       cx="293.51999"
       fy="504.70999"
       fx="293.51999"><stop
         id="stop164"
         offset="0"
         style="stop-opacity:1;stop-color:#f5821f" /><stop
         id="stop166"
         offset="1"
         style="stop-opacity:1;stop-color:#fdb813" /></radialGradient><radialGradient
       id="radialGradient172"
       gradientTransform="translate(-0.157882,0.075118)"
       gradientUnits="userSpaceOnUse"
       r="0"
       cy="504.70999"
       cx="293.51999"
       fy="504.70999"
       fx="293.51999"><stop
         id="stop174"
         offset="0"
         style="stop-opacity:1;stop-color:#fdb813" /><stop
         id="stop176"
         offset="1"
         style="stop-opacity:1;stop-color:#fff200" /></radialGradient><clipPath
       id="clipPath230"
       clipPathUnits="userSpaceOnUse"><path
         style="clip-rule:evenodd"
         id="path232"
         d="m 208.598,457.438 c 77.551,3.759 146.947,3.837 212.596,2.607 0.288,-2.522 1.81,-5.908 2.099,-8.43 -72.648,1.207 -144.859,1.743 -215.776,-2.238 0.504,2.522 0.576,5.539 1.081,8.061" /></clipPath><pattern
       id="pattern238"
       height="72"
       width="72"
       y="0"
       x="0"
       patternUnits="userSpaceOnUse"
       patternTransform="matrix(0.00273432,0,0,-0.17579518,1.3439896e-6,0.99996115)"><g
         id="g240"
         transform="matrix(72.000008,0,0,-72.000008,0,72.000008)"><rect
           id="rect242"
           style="fill:#231f20;fill-opacity:1;fill-rule:nonzero"
           transform="matrix(1,0,0,-1,0,1)"
           height="1"
           width="1"
           y="0"
           x="0" /></g></pattern></defs><g
     transform="matrix(0.58381534,0,0,-0.58381534,-45.047419,392.76621)"
     id="g10"><path
       id="path12"
       style="fill:#d2ab67;fill-opacity:1;fill-rule:evenodd;stroke:none"
       d="m 316.489,271.6 c -10e-4,-3.887 1.489,-7.798 0.002,-8.147 -6.356,-1.496 -13.951,-0.831 -20.202,0.441 -0.287,3.125 -0.513,6.253 -1.763,9.361 6.491,-0.661 13.791,-1.248 21.963,-1.655" /><path
       id="path14"
       style="fill:#231f20;fill-opacity:1;fill-rule:evenodd;stroke:none"
       d="m 312.972,206.899 c -25.338,15.178 4.892,50.801 -17.937,54.062 -3.387,1.631 -3.387,10.537 -1.004,11.039 -33.365,4.515 -56.445,15.93 -82.786,33.992 -5.143,-11.539 -11.164,-2.383 -17.185,-3.888 -13.045,-8.906 -25.337,-40.39 -44.78,-26.341 -10.912,21.825 27.972,30.982 27.972,47.163 -2.793,5.515 3.438,14.908 4.637,13.121 l 1.484,-2.21 c 0.747,-1.114 -2.122,-2.975 -4.252,-4.762 0,-3.386 7.288,-10.539 10.675,-14.052 2.257,0.753 3.763,3.262 5.393,5.143 -28.348,30.732 -40.264,58.327 -47.288,98.09 -12.669,0 -8.028,-1.631 -12.544,7.149 -14.676,11.039 -45.783,-13.546 -53.058,13.297 4.641,28.473 51.679,-3.262 53.936,20.069 2.885,5.895 20.697,1.003 4.014,-0.753 -1.631,-1.63 -1.881,-13.923 -1.129,-18.94 20.948,0 -14.174,-4.139 7.401,-5.143 0,-1.631 0.125,-3.261 0.251,-4.892 1.38,46.411 9.784,72.375 34.62,110.131 -7.15,8.404 -6.899,6.021 -2.886,15.178 -4.766,17.56 -42.772,23.707 -27.219,47.038 28.223,10.536 31.61,-38.634 52.181,-24.962 4.641,0 5.143,-4.641 9.784,-5.895 18.564,12.418 34.118,20.571 55.692,27.219 6.021,1.129 22.453,4.265 23.707,6.146 0.502,10.662 -0.251,7.777 8.781,11.54 7.651,15.429 -11.289,47.791 13.923,52.181 28.599,-8.153 -4.892,-52.306 19.568,-54.439 2.885,-2.257 0.376,-7.526 2.634,-10.411 1.38,-0.125 10.285,-0.502 3.888,-1.254 28.599,-6.272 49.296,-14.927 74.508,-32.236 6.648,5.518 5.268,7.149 13.296,2.884 18.188,0 24.083,41.394 48.543,27.22 14.551,-20.697 -30.731,-33.366 -27.47,-48.292 4.641,-7.15 3.261,-6.523 -2.634,-13.297 1.756,-3.386 8.53,-13.421 16.055,-26.842 7.903,-16.683 12.418,-33.241 16.181,-52.557 11.54,-0.251 7.526,1.379 13.046,-8.53 10.536,-8.404 51.804,12.795 51.804,-15.052 -11.791,-23.707 -44.153,0.627 -53.059,-13.672 -1.129,-8.404 -3.261,-6.272 -11.791,-6.899 -5.268,-28.975 -15.051,-54.438 -32.989,-78.898 6.648,-7.902 5.896,-4.265 2.885,-14.425 2.258,-16.181 40.892,-21.324 28.725,-45.658 -22.955,-16.307 -33.993,30.982 -50.174,25.588 -7.401,-7.4 -7.777,2.384 -13.17,3.262 -40.139,-27.596 -71.749,-33.24 -119.414,-32.738 0.502,-10.913 6.899,-7.777 18.314,-8.154 0.376,0 3.512,16.683 3.512,0.251 4.704,0.024 -0.676,8.04 3.544,8.351 l 5.989,0.441 c 0,-9.156 1.297,-8.045 2.175,0.234 3.381,0.147 5.282,0.754 6.29,0.221 1.573,-0.832 0.975,-3.753 0.441,-10.25 -19.568,-8.279 -6.272,-20.321 -7.401,-38.383 -2.258,-9.784 -5.268,-15.805 -15.679,-17.185" /><path
       id="path16"
       style="fill:#d2ab67;fill-opacity:1;fill-rule:evenodd;stroke:none"
       d="m 311.717,212.795 c -16.557,13.798 3.763,37.379 -6.271,47.414 5.268,0 10.536,0.125 15.93,0.251 -2.885,-8.028 1.003,-20.571 -6.899,-25.463 0,-1.38 13.296,-4.139 8.655,-16.432 -3.512,-4.892 -6.272,-5.394 -11.415,-5.77" /><path
       id="path18"
       style="fill:#231f20;fill-opacity:1;fill-rule:evenodd;stroke:none"
       d="m 313.348,214.927 c -14.425,9.032 1.882,19.317 1.882,14.425 -4.516,-5.268 -5.018,-7.275 0.752,-13.045 0,-1.63 -1.505,-1.254 -2.634,-1.38" /><g
       id="g20"><g
         id="g22"><g
           id="g28"><path
             id="path36"
             style="fill:url(#linearGradient30);fill-rule:evenodd;stroke:none"
             d="m 306.324,275.512 c -55.442,6.899 -91.818,26.341 -125.936,69.992 -47.665,75.888 -34.871,164.193 35.498,220.513 64.348,45.282 141.113,43.651 203.454,-6.146 74.759,-67.86 76.013,-173.601 2.509,-244.22 -34.871,-29.352 -70.62,-39.512 -115.525,-40.139" /></g><g
           id="g38"><path
             id="path46"
             style="fill:url(#linearGradient40);fill-rule:evenodd;stroke:none"
             d="m 306.324,275.512 c -55.442,6.899 -91.818,26.341 -125.936,69.992 -47.665,75.888 -34.871,164.193 35.498,220.513 64.348,45.282 141.113,43.651 203.454,-6.146 74.759,-67.86 76.013,-173.601 2.509,-244.22 -34.871,-29.352 -70.62,-39.512 -115.525,-40.139" /></g></g></g><path
       id="path48"
       style="fill:#d2ab67;fill-opacity:1;fill-rule:evenodd;stroke:none"
       d="m 467.256,275.888 c -17.185,5.645 -18.69,21.826 -34.118,29.728 14.926,14.425 7.651,10.411 21.7,-1.505 7.024,-11.54 -2.258,-8.655 12.794,-8.655 9.157,-4.516 12.794,-17.435 -0.376,-19.568" /><path
       id="path50"
       style="fill:#d2ab67;fill-opacity:1;fill-rule:evenodd;stroke:none"
       d="m 159.064,276.766 c -22.327,8.906 9.533,27.47 16.056,32.613 8.655,13.296 5.393,10.787 17.184,-0.627 -0.376,-0.753 -15.303,-13.171 -16.432,-13.798 -6.773,0 -8.027,2.007 -4.892,-4.264 0.753,-9.408 -3.261,-12.795 -11.916,-13.924" /><path
       id="path52"
       style="fill:#231f20;fill-opacity:1;fill-rule:evenodd;stroke:none"
       d="m 464.747,278.397 c -9.659,6.773 -4.014,19.568 -2.258,8.404 1.882,-5.143 19.066,-7.15 2.258,-8.404" /><path
       id="path54"
       style="fill:#231f20;fill-opacity:1;fill-rule:evenodd;stroke:none"
       d="m 156.556,279.651 c -10.537,10.537 10.661,19.192 10.661,11.164 -14.926,-1.255 -5.895,-8.028 -10.661,-11.164" /><path
       id="path56"
       style="fill:#d2ab67;fill-opacity:1;fill-rule:evenodd;stroke:none"
       d="m 423.354,301.477 c -11.164,8.78 -1.004,8.655 8.655,17.309 14.926,0 -6.272,-15.553 -8.655,-17.309" /><path
       id="path58"
       style="fill:#ffffff;fill-opacity:1;fill-rule:evenodd;stroke:none"
       d="m 200.457,305.24 c -2.383,2.634 3.011,8.278 5.645,4.766 -1.881,-1.505 -3.763,-3.135 -5.645,-4.766" /><path
       id="path60"
       style="fill:#ffffff;fill-opacity:1;fill-rule:evenodd;stroke:none"
       d="m 193.433,311.511 c -5.644,5.645 9.784,12.042 7.526,2.635 -4.766,4.766 -3.386,-1.255 -7.526,-2.635" /><path
       id="path62"
       style="fill:#ffffff;fill-opacity:1;fill-rule:evenodd;stroke:none"
       d="m 439.284,316.027 c -1.129,1.003 -7.902,6.523 -2.885,6.523 1.38,-1.38 6.397,-3.889 2.885,-6.523" /><path
       id="path64"
       style="fill:#ffffff;fill-opacity:1;fill-rule:evenodd;stroke:none"
       d="m 445.556,323.177 c -7.025,7.024 -6.021,9.031 1.379,1.631 -0.376,-0.502 -0.878,-1.004 -1.379,-1.631" /><path
       id="path66"
       style="fill:#d2ab67;fill-opacity:1;fill-rule:evenodd;stroke:none"
       d="m 480.175,417.252 c 0.377,6.523 0.753,13.045 1.255,19.694 12.669,-0.628 10.536,-19.192 -1.255,-19.694" /><path
       id="path68"
       style="fill:#ffffff;fill-opacity:1;fill-rule:evenodd;stroke:none"
       d="m 140.249,424.778 c -2.258,5.896 4.39,-0.25 6.774,3.262 0.627,-5.268 -2.635,-3.262 -6.774,-3.262" /><path
       id="path70"
       style="fill:#d2ab67;fill-opacity:1;fill-rule:evenodd;stroke:none"
       d="m 520.816,426.409 c -12.794,3.387 -16.934,4.265 -28.975,1.003 -0.126,5.018 -0.251,10.161 -0.377,15.304 8.655,-2.133 19.067,1.505 25.464,-6.272 1.881,0 4.515,13.296 16.933,8.028 13.547,-11.917 -1.505,-17.436 -13.045,-18.063" /><path
       id="path72"
       style="fill:#231f20;fill-opacity:1;fill-rule:evenodd;stroke:none"
       d="m 527.088,429.419 c -3.387,1.631 -9.659,7.652 -4.516,7.652 7.777,-9.282 14.425,6.146 13.923,-2.885 -3.888,-4.265 -4.139,-4.139 -9.407,-4.767" /><path
       id="path74"
       style="fill:#d2ab67;fill-opacity:1;fill-rule:evenodd;stroke:none"
       d="m 95.971,429.796 c -17.937,9.658 -3.387,19.066 10.411,19.066 9.533,-2.007 18.439,-5.018 29.352,-0.251 0,-5.143 0,-10.411 0,-15.679 -7.527,3.763 -15.429,0.376 -21.826,2.508 -1.881,1.756 -3.01,3.889 -4.39,3.513 -2.007,-8.028 -6.774,-8.781 -13.547,-9.157" /><path
       id="path76"
       style="fill:#231f20;fill-opacity:1;fill-rule:evenodd;stroke:none"
       d="m 90.577,437.322 c 0,18.313 21.45,2.885 14.425,1.129 -8.529,7.275 -8.404,0.878 -14.425,-1.129" /><path
       id="path78"
       style="fill:#ffffff;fill-opacity:1;fill-rule:evenodd;stroke:none"
       d="m 482.684,438.953 c -5.268,3.512 5.896,5.393 5.896,0.752 -1.882,-0.251 -3.889,-0.502 -5.896,-0.752" /><path
       id="path80"
       style="fill:#ffffff;fill-opacity:1;fill-rule:evenodd;stroke:none"
       d="m 483.562,448.611 c -9.533,1.254 5.143,5.268 4.265,0.376 -1.38,-0.125 -2.76,-0.251 -4.265,-0.376" /><path
       id="path82"
       style="fill:#d2ab67;fill-opacity:1;fill-rule:evenodd;stroke:none"
       d="m 445.054,540.178 c -1.505,1.756 -21.073,19.066 -6.899,19.066 6.021,-6.774 17.561,-12.042 6.899,-19.066" /><path
       id="path84"
       style="fill:#ffffff;fill-opacity:1;fill-rule:evenodd;stroke:none"
       d="m 185.405,545.195 c -1.505,3.136 -5.268,4.265 -3.386,6.146 1.003,-0.25 8.028,-4.264 3.386,-6.146" /><path
       id="path86"
       style="fill:#ffffff;fill-opacity:1;fill-rule:evenodd;stroke:none"
       d="m 192.179,551.843 c -10.286,11.289 1.756,5.519 1.756,1.129 -0.502,-0.376 -1.129,-0.753 -1.756,-1.129" /><path
       id="path88"
       style="fill:#d2ab67;fill-opacity:1;fill-rule:evenodd;stroke:none"
       d="m 445.932,554.854 c -16.181,16.682 -9.909,8.153 2.885,22.452 4.014,2.133 4.014,2.133 9.533,1.882 -7.777,25.463 29.979,24.334 11.54,-2.383 -12.418,-8.656 -16.056,-9.784 -23.958,-21.951" /><path
       id="path90"
       style="fill:#d2ab67;fill-opacity:1;fill-rule:evenodd;stroke:none"
       d="m 195.44,555.606 c -9.031,9.91 -0.878,8.53 9.032,17.436 14.173,0 -5.143,-16.558 -9.032,-17.436" /><path
       id="path92"
       style="fill:#ffffff;fill-opacity:1;fill-rule:evenodd;stroke:none"
       d="m 430.002,556.484 c -2.885,5.77 10.411,9.282 1.881,0.753 -0.627,-0.251 -1.254,-0.502 -1.881,-0.753" /><path
       id="path94"
       style="fill:#d2ab67;fill-opacity:1;fill-rule:evenodd;stroke:none"
       d="m 184.151,558.115 c -4.516,11.414 -13.672,10.913 -13.045,23.331 -14.425,-2.885 -22.578,2.007 -15.428,16.306 13.17,6.522 22.201,-12.418 29.1,-21.575 12.042,-9.031 12.042,-5.393 -0.627,-18.062" /><path
       id="path96"
       style="fill:#ffffff;fill-opacity:1;fill-rule:evenodd;stroke:none"
       d="m 423.354,562.756 c -2.76,4.139 4.766,8.279 4.766,4.516 -1.505,-1.506 -3.135,-3.011 -4.766,-4.516" /><path
       id="path98"
       style="fill:#231f20;fill-opacity:1;fill-rule:evenodd;stroke:none"
       d="m 175.922,396.05 c -18.684,10.432 12.3,22.887 6.851,2.958 -2.959,-2.335 -4.516,-2.491 -6.851,-2.958" /><path
       id="path100"
       style="fill:#ffffff;fill-opacity:1;fill-rule:evenodd;stroke:none"
       d="m 174.832,398.074 c -4.982,4.982 -3.426,15.725 3.114,0 -0.934,0 -2.024,0 -3.114,0" /><path
       id="path102"
       style="fill:#ffffff;fill-opacity:1;fill-rule:evenodd;stroke:none"
       d="m 179.97,399.164 c -5.761,17.594 4.982,6.228 1.09,0.311 -0.312,0 -0.623,-0.156 -1.09,-0.311" /><path
       id="path104"
       style="fill:#231f20;fill-opacity:1;fill-rule:evenodd;stroke:none"
       d="m 465.123,579.94 c -11.163,3.638 0.753,2.634 4.767,7.903 0.878,14.174 6.522,-0.251 1.254,-5.52 -2.007,-0.752 -4.014,-1.505 -6.021,-2.383" /><path
       id="path106"
       style="fill:#231f20;fill-opacity:1;fill-rule:evenodd;stroke:none"
       d="m 167.092,583.202 c -1.38,10.285 -2.885,9.533 -11.164,10.411 0,10.411 23.331,-3.136 11.164,-10.411" /><path
       id="path108"
       style="fill:#d2ab67;fill-opacity:1;fill-rule:evenodd;stroke:none"
       d="m 330.532,602.895 c -11.289,0.752 -16.557,-2.509 -16.055,8.028 5.519,-0.126 12.418,0.627 19.066,-1.255 0.125,-3.888 2.383,-6.773 -3.011,-6.773" /><path
       id="path110"
       style="fill:#ffffff;fill-opacity:1;fill-rule:evenodd;stroke:none"
       d="m 300.052,603.773 c 0.502,9.658 2.509,9.031 2.007,0 -0.627,0 -1.254,0 -2.007,0" /><path
       id="path112"
       style="fill:#ffffff;fill-opacity:1;fill-rule:evenodd;stroke:none"
       d="m 309.209,604.149 c 0,8.906 2.508,9.658 2.508,0.376 -0.752,-0.125 -1.63,-0.251 -2.508,-0.376" /><path
       id="path114"
       style="fill:#d2ab67;fill-opacity:1;fill-rule:evenodd;stroke:none"
       d="m 309.209,613.807 c -0.377,0.377 1.379,20.572 1.881,21.952 1.38,1.63 3.889,3.386 4.265,4.64 -25.338,5.645 7.651,42.272 9.909,4.265 -1.379,-5.644 -7.024,-24.585 -1.129,-30.48 -4.892,-0.126 -9.909,-0.251 -14.926,-0.377" /><path
       id="path116"
       style="fill:#231f20;fill-opacity:1;fill-rule:evenodd;stroke:none"
       d="m 315.104,643.034 c -2.258,1.128 7.526,8.529 -1.129,15.052 1.505,6.397 17.059,-9.784 1.129,-15.052" /><path
       id="path118"
       style="fill:#d2ab67;fill-opacity:1;fill-rule:evenodd;stroke:none"
       d="m 147.251,439.096 c -3.856,0.069 -7.759,-1.271 -8.081,0.141 -1.377,6.038 -0.59,13.21 0.775,19.099 3.105,0.216 6.211,0.376 9.315,1.504 -0.764,-6.128 -1.468,-13.022 -2.009,-20.744" /><path
       id="path120"
       style="fill:#d2ab67;fill-opacity:1;fill-rule:evenodd;stroke:none"
       d="m 195.274,319.956 c -2.457,-2.514 -4.039,-5.968 -5.148,-5.271 -5.47,3.44 -8.971,9.699 -11.243,14.029 1.805,2.201 3.126,3.22 4.346,6.011 3.451,-4.476 7.432,-9.409 12.045,-14.769" /><path
       id="path122"
       style="fill:#231f20;fill-opacity:1;fill-rule:evenodd;stroke:#231f20;stroke-width:0.21600001;stroke-linecap:butt;stroke-linejoin:miter;stroke-miterlimit:22.9260006;stroke-dasharray:none;stroke-opacity:1"
       d="m 309.08,321.985 c -55.989,7.143 -92.544,38.446 -106.305,92.124 -15.336,94.435 71.115,163.659 160.088,128.049 44.854,-23.005 68.594,-58.93 68.594,-111.557 -5.988,-62.292 -46.745,-100.528 -107.251,-108.406 -5.042,0 -10.084,-0.105 -15.126,-0.21 z" /><path
       id="path124"
       style="fill:#ffffff;fill-opacity:1;fill-rule:evenodd;stroke:none"
       d="m 311.656,325.329 c -41.054,4.19 -73.283,23.908 -91.264,53.502 -0.791,1.303 -1.556,2.626 -2.291,3.966 -11.187,20.381 -15.886,45.074 -12.473,72.388 14.776,70.234 78.247,106.756 147.44,86.049 64.408,-27.365 92.294,-91.876 61.391,-157.116 -24.244,-40.788 -56.708,-56.812 -102.803,-58.789" /><path
       id="path126"
       style="fill:#231f20;fill-opacity:1;fill-rule:evenodd;stroke:none"
       d="m 451.18,397.433 c -13.745,7.833 3.399,18.918 7.538,8.424 0,-6.798 -1.478,-7.389 -7.538,-8.424" /><path
       id="path128"
       style="fill:#ffffff;fill-opacity:1;fill-rule:evenodd;stroke:none"
       d="m 452.658,398.911 c 1.921,4.877 4.582,13.449 4.582,2.66 -2.07,-2.069 -2.809,-2.364 -4.582,-2.66" /><path
       id="path130"
       style="fill:#ffffff;fill-opacity:1;fill-rule:evenodd;stroke:none"
       d="m 449.258,399.798 c -3.842,5.173 -0.886,8.867 4.434,8.867 -0.443,-1.477 -2.956,-7.833 -4.434,-8.867" /><path
       id="path132"
       style="fill:#00aeef;fill-opacity:1;fill-rule:evenodd;stroke:none"
       d="m 308.147,327.931 c -24.105,3.62 -40.347,9.517 -59.589,22.759 -50.485,42.002 -56.692,109.453 -13.552,159.835 27.104,28.243 60.623,38.691 99.625,33.415 50.898,-10.656 84.727,-47.588 90.21,-100.453 0,-56.071 -25.139,-91.452 -77.796,-111.211 -13.759,-3.311 -25.656,-4.138 -38.898,-4.345" /><path
       id="path134"
       style="fill:#ffffff;fill-opacity:1;fill-rule:evenodd;stroke:none"
       d="m 309.802,329.276 c -18.518,2.275 -33.829,6.62 -49.14,15.207 3.931,2.069 33.829,1.035 18.104,-2.586 -6.724,-4.449 13.553,-6.207 15.932,-7.966 12.621,0.828 25.242,0.931 38.898,-0.207 -1.035,-2.586 -2.586,-1.655 2.069,-2.483 -9.207,-1.138 -17.69,-1.759 -25.863,-1.965" /><path
       id="path136"
       style="fill:#ffffff;fill-opacity:1;fill-rule:evenodd;stroke:none"
       d="m 346.01,334.448 c -2.896,1.448 19.139,3.414 -6.62,5.38 -3.208,0 -37.968,-2.173 -37.968,3.207 23.794,5.276 -15,7.862 -18.207,8.172 -23.691,0 -31.14,-0.31 -31.243,0 4.552,2.276 -8.069,5.173 -8.173,5.173 -1.138,1.242 -2.379,2.483 -3.621,3.725 9.208,0.62 18.725,1.551 28.967,1.758 6.828,-1.138 -12.207,-2.379 -4.448,-6.207 22.759,0 45.933,0.103 69.313,-1.862 -0.724,-1.966 -3.621,-1.448 -0.828,-3.621 18.518,0.724 47.692,1.138 32.484,-3.104 -10.034,0 -18.828,-0.206 -28.035,-1.448 -3.828,-3.828 29.484,-2.896 29.484,-3.931 -6.932,-2.793 -14.277,-6.414 -21.105,-7.242" /><path
       id="path138"
       style="fill:#ffffff;fill-opacity:1;fill-rule:evenodd;stroke:none"
       d="m 385.322,354.415 c -3.31,10.138 -34.967,-3.001 -35.898,6.103 -8.172,2.793 -66.83,-1.965 -65.589,3.207 2.69,1.656 4.035,3 0.414,4.035 -13.449,0 -46.243,-7.655 -53.071,1.966 13.345,-0.725 66.934,13.242 71.382,4.345 -4.655,-0.931 -6.31,-2.483 -1.345,-4.966 9.311,-0.311 68.9,3.104 71.797,-2.69 -11.69,-8.276 18.104,-0.207 20.38,-4.862 -2.69,-2.38 -5.38,-4.759 -8.07,-7.138" /><path
       id="path140"
       style="fill:#ffffff;fill-opacity:1;fill-rule:evenodd;stroke:none"
       d="m 397.426,366.519 c -2.482,4.241 -17.897,-1.035 -9.517,4.551 2.069,10.656 -69.107,4.656 -75.521,8.897 0,1.863 12.932,3.414 5.587,6.104 -23.691,-0.931 -47.175,-1.552 -69.21,-8.69 -4.138,-0.517 -19.139,-2.586 -21.208,0.621 17.587,5.586 30.932,8.793 49.761,10.448 0.62,0 35.587,-3.103 26.587,4.449 -16.759,5.38 -27.104,4.242 -1.448,7.242 9.414,0 1.862,-1.035 2.379,-3.621 6.311,-3.104 47.795,-1.448 47.795,-5.173 -5.689,-0.621 -27.104,-2.276 -17.587,-6.31 41.175,-1.345 55.865,-1.449 55.865,-3.725 -15.415,-2.069 14.587,-4.655 14.587,-4.655 -2.38,-3.517 -5.276,-6.931 -8.07,-10.138" /><path
       id="path142"
       style="fill:#ffffff;fill-opacity:1;fill-rule:evenodd;stroke:none"
       d="m 222.281,384.106 c -2.69,2.689 -5.69,9.103 -5.69,11.276 21.829,-8.483 49.037,4.138 72.52,-1.655 -6.724,-5.794 -28.966,-3.828 -36.519,-4.242 -10.758,-1.345 -20.38,-4.138 -30.311,-5.379" /><path
       id="path144"
       style="fill:#ffffff;fill-opacity:1;fill-rule:evenodd;stroke:none"
       d="m 235.73,398.589 c -1.035,2.793 12.724,1.345 12.724,0 -4.241,0 -8.483,0 -12.724,0" /><path
       id="path146"
       style="fill:#ffffff;fill-opacity:1;fill-rule:evenodd;stroke:none"
       d="m 403.944,381.002 c -1.552,0.724 -0.31,2.586 -0.517,3.517 -7.449,4.656 -37.967,1.862 -37.967,4.966 1.965,0.414 24.311,1.138 16.345,5.897 -8.069,1.241 -62.175,0.931 -62.175,3.724 2.897,1.552 23.587,2.483 13.552,6.931 -27.725,0 -60.933,-9 -86.9,-2.069 -11.483,0.725 -23.07,2.069 -33.002,-1.551 -1.241,4.138 -1.241,4.138 -1.344,5.793 9.414,-0.827 25.346,8.587 35.484,2.276 15.207,-4.345 33.208,-1.966 49.864,-1.034 3.828,0 56.485,3.31 56.485,-0.311 -3.724,-1.035 -3.724,-1.035 -4.448,-1.552 0,-5.379 53.588,0.931 63.313,-2.896 3.931,0 8.276,1.034 3.621,-4.345 -4.448,-2.38 -31.553,3 -22.656,-2.276 4.552,-0.414 8.897,-1.242 14.276,-2.793 0,-8.173 10.035,2.896 0.724,-13.76 -1.552,-0.103 -3.103,-0.31 -4.655,-0.517" /><path
       id="path148"
       style="fill:#992326;fill-opacity:1;fill-rule:evenodd;stroke:#992326;stroke-width:0.21600001;stroke-linecap:butt;stroke-linejoin:miter;stroke-miterlimit:22.9260006;stroke-dasharray:none;stroke-opacity:1"
       d="m 222.492,380.939 186.621,-0.463 -7.401,-11.52 -171.388,-0.24 -7.832,12.223 z" /><path
       id="path150"
       style="fill:#cd8c5d;fill-opacity:1;fill-rule:evenodd;stroke:none"
       d="m 219.493,383.783 193.026,0.245 -3.633,-3.935 -185.253,0 -4.14,3.69" /><g
       id="g152"><g
         id="g154"><g
           id="g160"><path
             id="path168"
             style="fill:url(#radialGradient162);fill-rule:evenodd;stroke:none"
             d="m 293.363,531.156 c -15.728,0 -28.483,-11.809 -28.483,-26.371 0,-14.562 12.755,-26.372 28.483,-26.372 15.728,0 28.483,11.81 28.483,26.372 0,14.562 -12.755,26.371 -28.483,26.371" /></g><g
           id="g170"><path
             id="path178"
             style="fill:url(#radialGradient172);fill-rule:evenodd;stroke:none"
             d="m 293.363,531.156 c -15.728,0 -28.483,-11.809 -28.483,-26.371 0,-14.562 12.755,-26.372 28.483,-26.372 15.728,0 28.483,11.81 28.483,26.372 0,14.562 -12.755,26.371 -28.483,26.371" /></g></g></g><path
       id="path180"
       style="fill:#2e3092;fill-opacity:1;fill-rule:evenodd;stroke:none"
       d="m 415.231,479.607 c -2.361,4.695 -10.527,3.649 -13.414,3.321 -10.986,-1.243 -15.113,-6.088 -15.974,-5.867 -4.568,1.171 -8.824,1.737 -12.761,1.692 -3.737,-0.043 -6.738,1.753 -10.461,2.057 -1.26,0.102 -1.19,0.335 -1.314,1.186 -2.853,19.607 -12.665,24.655 -31.329,15.599 -3.743,-1.816 -5.851,1.9 -7.748,0.859 -2.856,-1.568 -8.22,5.227 -10.82,5.747 -1.689,0.338 -3.645,-1.174 -6.61,-0.863 -2.965,0.311 -5.27,3.395 -7.401,3.863 -3.817,0.84 -3.488,5.567 -5.697,5.895 -1.922,0.284 -2.178,-1.715 -3.806,-2.617 -1.698,-0.942 -3.149,-2.38 -4.359,-4.532 -0.936,-1.667 -2.237,-3.672 -4.265,-4.988 -2.496,-1.62 -4.642,-4.535 -8.746,-5.742 -4.336,-1.275 -11.627,-6.07 -16.218,-8.883 -0.39,-0.239 -0.906,-0.163 -1.346,-0.259 -6.61,-1.437 -9.354,-4.528 -12.758,-7.185 -0.841,-0.658 -1.621,-1.796 -2.474,-1.533 -3.353,1.033 -1.154,0.4 -10.937,0.466 -2.724,0.019 -3.772,0.271 -7.203,0.397 -1.263,0.046 -3.5,1.734 -4.124,0.433 -6.546,-13.654 -8.839,-29.034 -9.201,-45.199 72.791,0 145.581,0 218.371,0 0.922,15.384 -1.673,30.769 -9.405,46.153" /><path
       id="path182"
       style="fill:#ffffff;fill-opacity:1;fill-rule:evenodd;stroke:none"
       d="m 370.557,411.033 c -5.897,2.897 4.138,2.173 0.207,6.104 -31.76,9 -65.072,0.207 -96.418,-3.104 -5.897,0.207 -10.035,0.104 -13.242,4.552 -10.656,5.69 -34.036,0.104 -45.002,-2.483 -7.035,0 -6.414,0 -7.242,6.311 18.208,0 37.554,3 56.485,3 3.311,-0.724 14.484,-4.862 16.242,-5.173 32.795,1.035 66.004,8.898 100.143,2.07 6.724,-7.139 24.311,3.827 36.932,-4.552 0,-2.897 -10.758,-1.345 -11.483,-1.345 -12.414,-0.828 -25.035,-4.966 -36.622,-5.38" /><path
       id="path184"
       style="fill:#ffffff;fill-opacity:1;fill-rule:evenodd;stroke:none"
       d="m 394.041,423.137 c -1.552,1.759 -1.759,3.207 -2.897,4.035 -28.76,3.621 -60.106,4.448 -88.142,1.034 -12.31,0.207 -23.38,0.932 -34.967,3.104 -10.862,0 -58.244,-7.862 -60.209,2.173 19.552,0.206 19.552,0.206 215.595,-0.518 -1.138,-3.517 -28.346,1.138 -34.967,-1.034 0,-4.138 22.863,-3 26.277,-2.69 1.035,-0.207 14.277,-4.241 5.173,-6 -8.69,6.31 -16.242,0.31 -25.863,-0.104" /><path
       id="path186"
       style="fill:#ffffff;fill-opacity:1;fill-rule:evenodd;stroke:none"
       d="m 370.529,410.279 c -5.897,2.897 4.138,2.173 0.207,6.104 -31.76,9 -65.072,0.207 -96.418,-3.104 -5.897,0.207 -10.035,0.104 -13.242,4.552 -10.656,5.69 -34.036,0.104 -45.002,-2.483 -7.035,0 -6.414,0 -7.242,6.311 18.208,0 37.553,3 56.485,3 3.311,-0.724 14.484,-4.862 16.242,-5.173 32.795,1.035 66.003,8.897 100.143,2.069 6.724,-7.138 24.311,3.828 36.932,-4.551 0,-2.897 -10.759,-1.345 -11.483,-1.345 -12.414,-0.828 -25.036,-4.966 -36.622,-5.38" /><path
       id="path188"
       style="fill:#ffffff;fill-opacity:1;fill-rule:evenodd;stroke:none"
       d="m 394.013,422.383 c -1.552,1.759 -1.759,3.207 -2.897,4.035 -28.76,3.621 -60.106,4.448 -88.142,1.034 -12.311,0.207 -23.38,0.931 -34.967,3.104 -10.862,0 -58.244,-7.862 -60.21,2.173 19.553,0.206 19.553,0.206 215.596,-0.518 -1.138,-3.517 -28.346,1.138 -34.967,-1.034 0,-4.138 22.863,-3.001 26.277,-2.69 1.035,-0.207 14.277,-4.242 5.173,-6 -8.69,6.31 -16.242,0.31 -25.863,-0.104" /><g
       transform="matrix(0.970266,-0.02093,0.019712,1.03022,0,0)"
       id="g190"><path
         id="path192"
         style="fill:none;stroke:#00aeef;stroke-width:3.63499999;stroke-linecap:butt;stroke-linejoin:miter;stroke-miterlimit:22.9260006;stroke-dasharray:none;stroke-opacity:1"
         d="m 204.704,436.014 c 74.613,3.839 149.226,6.188 223.839,7.049" /></g><path
       id="path194"
       style="fill:#fff200;fill-opacity:1;fill-rule:evenodd;stroke:#fff200;stroke-width:0.21600001;stroke-linecap:butt;stroke-linejoin:miter;stroke-miterlimit:22.9260006;stroke-dasharray:none;stroke-opacity:1"
       d="m 236.831,471.982 c -1.472,0.031 -2.691,-1.169 -2.721,-2.678 -0.03,-1.51 1.14,-2.76 2.613,-2.791 1.472,-0.03 2.691,1.169 2.721,2.68 0.03,1.509 -1.14,2.759 -2.613,2.789 z" /><path
       id="path196"
       style="fill:#fff200;fill-opacity:1;fill-rule:evenodd;stroke:#fff200;stroke-width:0.21600001;stroke-linecap:butt;stroke-linejoin:miter;stroke-miterlimit:22.9260006;stroke-dasharray:none;stroke-opacity:1"
       d="m 301.958,473.985 c -1.473,0.031 -2.691,-1.169 -2.721,-2.679 -0.03,-1.51 1.14,-2.759 2.612,-2.79 1.473,-0.031 2.691,1.169 2.721,2.679 0.03,1.51 -1.14,2.759 -2.612,2.79 z" /><path
       id="path198"
       style="fill:#fff200;fill-opacity:1;fill-rule:evenodd;stroke:#fff200;stroke-width:0.21600001;stroke-linecap:butt;stroke-linejoin:miter;stroke-miterlimit:22.9260006;stroke-dasharray:none;stroke-opacity:1"
       d="m 331.828,474.393 c -1.472,0.031 -2.691,-1.169 -2.721,-2.679 -0.03,-1.51 1.141,-2.759 2.613,-2.79 1.473,-0.031 2.691,1.169 2.721,2.679 0.03,1.51 -1.14,2.759 -2.613,2.79 z" /><path
       id="path200"
       style="fill:#fff200;fill-opacity:1;fill-rule:evenodd;stroke:#fff200;stroke-width:0.21600001;stroke-linecap:butt;stroke-linejoin:miter;stroke-miterlimit:22.9260006;stroke-dasharray:none;stroke-opacity:1"
       d="m 365.141,474.172 c -1.473,0.03 -2.692,-1.169 -2.721,-2.679 -0.03,-1.51 1.14,-2.76 2.612,-2.79 1.473,-0.031 2.691,1.169 2.721,2.679 0.03,1.509 -1.14,2.759 -2.612,2.79 z" /><path
       id="path202"
       style="fill:#fff200;fill-opacity:1;fill-rule:evenodd;stroke:#fff200;stroke-width:0.21600001;stroke-linecap:butt;stroke-linejoin:miter;stroke-miterlimit:22.9260006;stroke-dasharray:none;stroke-opacity:1"
       d="m 395.995,474.56 c -1.472,0.031 -2.691,-1.169 -2.721,-2.679 -0.03,-1.51 1.141,-2.759 2.613,-2.79 1.472,-0.031 2.691,1.169 2.721,2.679 0.03,1.51 -1.14,2.759 -2.613,2.79 z" /><g
       transform="matrix(0,-1.012596,0.98756,0,0,0)"
       id="g204"><path
         id="path206"
         style="fill:none;stroke:#ffffff;stroke-width:1.95799994;stroke-linecap:butt;stroke-linejoin:miter;stroke-miterlimit:22.9260006;stroke-dasharray:none;stroke-opacity:1"
         d="m -460.901,239.746 10.236,-0.208 m -12.214,25.434 10.236,-0.208 m -10.517,40.898 10.236,-0.208 m -10.453,30.379 10.236,-0.208 m -10.104,33.97 10.236,-0.207 m -10.702,31.768 10.237,-0.208" /></g><path
       id="path208"
       style="fill:#231f20;fill-opacity:1;fill-rule:evenodd;stroke:none"
       d="m 377.198,442.733 3.553,-0.006 0.038,-25.368 -3.553,0.005 -0.038,25.369" /><path
       id="path210"
       style="fill:#231f20;fill-opacity:1;fill-rule:evenodd;stroke:none"
       d="m 383.792,442.231 6.019,-0.054 0.396,-26.287 -6.02,0.055 -0.395,26.286" /><path
       id="path212"
       style="fill:#808285;fill-opacity:1;fill-rule:evenodd;stroke:none"
       d="m 390.89,440.15 -17.326,0.36 -2.417,5.233 21.493,-0.134 -0.426,-2.004 -1.324,-3.455" /><path
       id="path214"
       style="fill:#939598;fill-opacity:1;fill-rule:evenodd;stroke:#939598;stroke-width:0.21600001;stroke-linecap:butt;stroke-linejoin:miter;stroke-miterlimit:22.9260006;stroke-dasharray:none;stroke-opacity:1"
       d="m 371.731,416.387 0.165,-4.245 16.913,-1.873 0.173,4.433 -17.251,1.685 z" /><path
       id="path216"
       style="fill:#231f20;fill-opacity:1;fill-rule:evenodd;stroke:#58595b;stroke-width:0.21600001;stroke-linecap:butt;stroke-linejoin:miter;stroke-miterlimit:22.9260006;stroke-dasharray:none;stroke-opacity:1"
       d="m 389.413,414.79 7.027,0.526 -0.087,-4.411 -7.19,-0.546 0.25,4.431 z" /><path
       id="path218"
       style="fill:#231f20;fill-opacity:1;fill-rule:evenodd;stroke:none"
       d="m 371.432,416.569 8.638,0.83 16.059,-1.831 -6.992,-0.351 -17.705,1.352" /><path
       id="path220"
       style="fill:#808285;fill-opacity:1;fill-rule:evenodd;stroke:#808285;stroke-width:0.21600001;stroke-linecap:butt;stroke-linejoin:miter;stroke-miterlimit:22.9260006;stroke-dasharray:none;stroke-opacity:1"
       d="m 375.521,442.415 3.304,0 0,-25.367 -3.304,-10e-4 0,25.368 z" /><path
       id="path222"
       style="fill:#808285;fill-opacity:1;fill-rule:evenodd;stroke:#808285;stroke-width:0.21600001;stroke-linecap:butt;stroke-linejoin:miter;stroke-miterlimit:22.9260006;stroke-dasharray:none;stroke-opacity:1"
       d="m 382.399,442.778 3.304,0.003 -0.021,-26.435 -3.304,-0.003 0.021,26.435 z" /><path
       id="path224"
       style="fill:#231f20;fill-opacity:1;fill-rule:evenodd;stroke:none"
       d="m 395.926,443.39 -1.88,-3.151 -3.154,0.013 1.525,3.485 0.004,1.749 3.916,0.055 -0.411,-2.151" /><g
       id="g226"><g
         clip-path="url(#clipPath230)"
         id="g228"><g
           transform="matrix(215.77548,0,0,-11.376876,207.51672,460.75345)"
           id="g234"><rect
             id="rect236"
             style="fill:#ffffff;fill-opacity:1;fill-rule:nonzero"
             transform="matrix(1,0,0,-1,0,1)"
             height="1"
             width="1"
             y="0"
             x="0" /></g><path
           id="path244"
           style="fill:url(#pattern238);fill-opacity:1;fill-rule:nonzero;stroke:none"
           d="m 208.598,457.438 c 77.551,3.759 146.947,3.837 212.596,2.607 0.288,-2.522 1.81,-5.908 2.099,-8.43 -72.648,1.207 -144.859,1.743 -215.776,-2.238 0.504,2.522 0.576,5.539 1.081,8.061" /></g></g><g
       transform="matrix(0.968191,-0.020975,0.01967,1.032428,0,0)"
       id="g246"><path
         id="path248"
         style="fill:none;stroke:#00aeef;stroke-width:1.45099998;stroke-linecap:butt;stroke-linejoin:miter;stroke-miterlimit:22.9260006;stroke-dasharray:none;stroke-opacity:1"
         d="m 205.925,439.196 c 74.219,3.819 148.438,6.161 222.657,7.026 m -222.226,1.482 c 74.219,3.819 148.438,6.161 222.657,7.026" /></g><path
       id="path250"
       style="fill:#fff200;fill-opacity:1;fill-rule:evenodd;stroke:#fff200;stroke-width:0.21600001;stroke-linecap:butt;stroke-linejoin:miter;stroke-miterlimit:22.9260006;stroke-dasharray:none;stroke-opacity:1"
       d="m 261.948,473.395 c -1.473,0.031 -2.691,-1.169 -2.721,-2.679 -0.03,-1.51 1.14,-2.759 2.613,-2.79 1.472,-0.031 2.691,1.169 2.721,2.679 0.029,1.51 -1.14,2.759 -2.613,2.79 z" /><path
       id="path252"
       style="fill:#231f20;fill-opacity:1;fill-rule:evenodd;stroke:none"
       d="m 260.236,441.114 6.02,-0.054 0.395,-26.287 -6.019,0.054 -0.396,26.287" /><path
       id="path254"
       style="fill:#808285;fill-opacity:1;fill-rule:evenodd;stroke:none"
       d="m 267.335,439.032 -17.327,0.361 -2.416,5.233 21.493,-0.135 -0.426,-2.003 -1.324,-3.456" /><path
       id="path256"
       style="fill:#939598;fill-opacity:1;fill-rule:evenodd;stroke:#939598;stroke-width:0.21600001;stroke-linecap:butt;stroke-linejoin:miter;stroke-miterlimit:22.9260006;stroke-dasharray:none;stroke-opacity:1"
       d="m 248.176,415.27 0.164,-4.245 16.913,-1.873 0.174,4.432 -17.251,1.686 z" /><path
       id="path258"
       style="fill:#231f20;fill-opacity:1;fill-rule:evenodd;stroke:#58595b;stroke-width:0.21600001;stroke-linecap:butt;stroke-linejoin:miter;stroke-miterlimit:22.9260006;stroke-dasharray:none;stroke-opacity:1"
       d="m 265.858,413.673 7.027,0.525 -0.088,-4.41 -7.19,-0.546 0.251,4.431 z" /><path
       id="path260"
       style="fill:#231f20;fill-opacity:1;fill-rule:evenodd;stroke:none"
       d="m 247.877,415.452 8.637,0.83 16.059,-1.831 -6.991,-0.351 -17.705,1.352" /><path
       id="path262"
       style="fill:#808285;fill-opacity:1;fill-rule:evenodd;stroke:#808285;stroke-width:0.21600001;stroke-linecap:butt;stroke-linejoin:miter;stroke-miterlimit:22.9260006;stroke-dasharray:none;stroke-opacity:1"
       d="m 251.965,441.298 3.304,0 0,-25.368 -3.304,0 0,25.368 z" /><path
       id="path264"
       style="fill:#808285;fill-opacity:1;fill-rule:evenodd;stroke:#808285;stroke-width:0.21600001;stroke-linecap:butt;stroke-linejoin:miter;stroke-miterlimit:22.9260006;stroke-dasharray:none;stroke-opacity:1"
       d="m 258.843,441.661 3.304,0.003 -0.021,-26.435 -3.304,-0.003 0.021,26.435 z" /><path
       id="path266"
       style="fill:#231f20;fill-opacity:1;fill-rule:evenodd;stroke:none"
       d="m 272.371,442.273 -1.881,-3.151 -3.153,0.013 1.524,3.484 0.005,1.749 3.915,0.056 -0.41,-2.151" /><path
       id="path268"
       style="fill:#231f20;fill-opacity:1;fill-rule:nonzero;stroke:none"
       d="m 168.047,436.666 12.72,-0.222 0.022,1.27 c 0.029,1.657 -0.534,3.025 -1.69,4.087 -1.156,1.069 -2.687,1.617 -4.594,1.65 -1.922,0.034 -3.465,-0.497 -4.636,-1.584 -1.171,-1.088 -1.776,-2.574 -1.809,-4.445 l -0.013,-0.756 z m -3.892,-11.07 0.234,13.409 c 0.071,4.101 1.009,7.343 2.811,9.725 1.811,2.383 4.194,3.545 7.157,3.493 1.908,-0.034 3.6,-0.606 5.078,-1.71 1.477,-1.112 2.58,-2.643 3.302,-4.608 0.277,0.326 0.605,0.621 0.977,0.9 0.372,0.273 0.838,0.543 1.401,0.82 l 6.116,3.166 0.033,1.848 3.352,-0.058 -0.183,-10.512 c -0.648,-0.106 -1.252,-0.228 -1.827,-0.379 -0.568,-0.144 -1.084,-0.312 -1.542,-0.509 l -6.781,-2.949 -0.032,-1.848 6.727,-0.118 0.037,2.105 3.352,-0.058 -0.231,-13.241 -3.352,0.059 0.037,2.149 -23.232,0.406 -0.038,-2.15 -3.396,0.06 z m 1.814,37.417 3.027,13.111 3.31,-0.765 -0.484,-2.094 22.641,-5.227 0.483,2.094 3.267,-0.754 -3.027,-13.111 -3.267,0.755 0.484,2.094 -22.64,5.227 -0.484,-2.094 -3.31,0.764 z m 19.981,38.496 c 0.005,-0.115 0.004,-0.226 -0.014,-0.339 -0.015,-0.106 -0.05,-0.219 -0.103,-0.339 -0.146,-0.329 -0.483,-0.814 -1.002,-1.457 -0.523,-0.651 -0.889,-1.203 -1.092,-1.659 -0.397,-0.891 -0.478,-1.795 -0.246,-2.717 0.235,-0.916 0.774,-1.815 1.625,-2.699 l 12.087,-1.334 -11.255,10.544 z m -4.509,7.75 1.988,0.641 c 0.612,-0.899 1.604,-1.991 2.962,-3.271 l 0.21,-0.213 15.282,-14.45 c 0.621,-0.59 1.222,-1.115 1.805,-1.575 0.586,-0.47 1.17,-0.89 1.752,-1.278 l -3.288,-7.386 c -0.57,0.093 -1.194,0.186 -1.878,0.274 -0.687,0.081 -1.536,0.178 -2.555,0.286 l -23.423,2.245 -0.681,-1.528 -3.103,1.382 5.139,11.541 3.103,-1.381 -0.648,-1.455 4.762,-0.561 c -1.987,1.96 -3.322,3.92 -4.031,5.882 -0.702,1.959 -0.708,3.712 -0.019,5.261 0.233,0.523 0.638,1.161 1.215,1.916 0.584,0.752 0.953,1.311 1.117,1.679 0.14,0.316 0.237,0.642 0.284,0.982 0.047,0.341 0.052,0.676 0.007,1.009 z m 19.292,27.383 4.932,-3.853 -1.879,-2.406 -0.993,0.72 c -0.662,-0.097 -1.37,-0.456 -2.125,-1.076 -0.755,-0.621 -1.61,-1.536 -2.554,-2.744 l -1.138,-1.457 5.163,-4.034 4.792,6.134 -1.728,1.351 1.879,2.405 6.354,-4.964 -1.88,-2.405 -1.491,1.165 -4.793,-6.134 9.436,-7.372 1.138,1.457 c 0.822,1.052 1.392,2.069 1.721,3.05 0.324,0.986 0.419,1.954 0.279,2.919 l -1.532,1.197 1.879,2.405 6.17,-4.819 -13.633,-17.449 -2.642,2.065 1.323,1.693 -18.309,14.306 -1.324,-1.694 -2.677,2.091 13.632,17.449 z m 18.326,13.25 8.513,-9.454 0.943,0.849 c 1.232,1.11 1.848,2.454 1.837,4.024 -0.006,1.574 -0.65,3.068 -1.926,4.485 -1.286,1.429 -2.726,2.195 -4.321,2.31 -1.594,0.114 -3.094,-0.456 -4.484,-1.708 l -0.562,-0.506 z m -10.751,-4.704 9.967,8.974 c 3.048,2.744 6.058,4.27 9.03,4.576 2.977,0.301 5.452,-0.649 7.435,-2.852 1.277,-1.417 2.012,-3.045 2.212,-4.88 0.195,-1.838 -0.173,-3.689 -1.117,-5.557 0.427,0.02 0.866,-0.019 1.325,-0.1 0.452,-0.086 0.969,-0.244 1.555,-0.466 l 6.486,-2.314 1.374,1.237 2.244,-2.492 -7.813,-7.035 c -0.52,0.402 -1.02,0.76 -1.523,1.078 -0.493,0.316 -0.967,0.58 -1.424,0.781 l -6.781,2.948 -1.374,-1.238 4.502,-5 1.564,1.409 2.244,-2.491 -9.841,-8.861 -2.244,2.491 1.598,1.439 -15.548,17.267 -1.597,-1.438 -2.274,2.524 z m 52.779,26.257 c -0.073,-0.089 -0.149,-0.171 -0.237,-0.243 -0.082,-0.068 -0.183,-0.129 -0.304,-0.183 -0.328,-0.146 -0.903,-0.282 -1.72,-0.412 -0.823,-0.134 -1.465,-0.3 -1.92,-0.502 -0.892,-0.397 -1.557,-1.014 -2.002,-1.855 -0.438,-0.838 -0.638,-1.866 -0.598,-3.093 l 8.09,-9.08 -1.309,15.368 z m 1.835,8.776 1.906,-0.854 c -0.146,-1.078 -0.14,-2.553 0.013,-4.412 l 0.013,-0.299 1.688,-20.965 c 0.067,-0.853 0.163,-1.646 0.288,-2.377 0.121,-0.742 0.274,-1.445 0.447,-2.122 l -7.386,-3.289 c -0.361,0.45 -0.763,0.937 -1.213,1.46 -0.456,0.52 -1.021,1.159 -1.707,1.922 l -15.904,17.342 -1.529,-0.681 -1.381,3.104 11.542,5.138 1.381,-3.103 -1.454,-0.648 3.162,-3.603 c -0.164,2.786 0.155,5.137 0.941,7.069 0.789,1.925 1.957,3.233 3.506,3.922 0.523,0.233 1.251,0.436 2.185,0.611 0.937,0.169 1.585,0.337 1.954,0.501 0.315,0.14 0.605,0.317 0.868,0.539 0.263,0.221 0.491,0.467 0.68,0.745 z m 7.168,2.172 12.867,3.934 0.994,-3.249 -2.056,-0.628 6.793,-22.221 2.056,0.629 0.98,-3.206 -12.867,-3.934 -0.98,3.206 2.055,0.628 -6.793,22.221 -2.056,-0.629 -0.993,3.249 z m 46.564,7.983 0.436,-6.243 -3.044,-0.213 -0.13,1.219 c -0.515,0.428 -1.256,0.715 -2.222,0.86 -0.967,0.146 -2.218,0.169 -3.748,0.061 l -1.844,-0.129 0.456,-6.535 7.766,0.543 -0.153,2.188 3.045,0.213 0.562,-8.043 -3.045,-0.213 -0.132,1.888 -7.765,-0.543 0.835,-11.945 1.845,0.129 c 1.332,0.093 2.468,0.35 3.418,0.762 0.949,0.419 1.732,0.996 2.356,1.746 l -0.136,1.939 3.045,0.213 0.546,-7.809 -22.088,-1.545 -0.234,3.345 2.144,0.15 -1.621,23.179 -2.144,-0.15 -0.237,3.389 22.089,1.544 z m 45.88,-13.468 c -0.095,-0.026 -0.203,-0.043 -0.316,-0.051 -0.121,-0.006 -0.232,10e-4 -0.347,0.023 -0.353,0.069 -0.916,0.29 -1.689,0.657 -0.773,0.367 -1.407,0.603 -1.904,0.699 -0.814,0.158 -1.583,0.046 -2.308,-0.336 -0.726,-0.389 -1.511,-1.119 -2.362,-2.194 l 0.876,-12.831 8.05,14.033 z m 6.539,6.151 1.093,-1.797 c -0.738,-0.799 -1.586,-2.009 -2.541,-3.617 l -0.14,-0.257 -10.663,-18.137 c -0.435,-0.738 -0.811,-1.442 -1.131,-2.127 -0.326,-0.676 -0.605,-1.34 -0.848,-1.98 l -7.512,1.46 c -0.033,0.791 -0.085,1.564 -0.142,2.307 -0.059,0.737 -0.13,1.446 -0.201,2.117 l -0.984,7.897 -3.953,-6.803 c -0.392,-0.671 -0.747,-1.342 -1.066,-2.02 -0.324,-0.669 -0.61,-1.369 -0.871,-2.095 l -7.598,1.477 c -0.023,0.647 -0.062,1.334 -0.12,2.071 -0.066,0.738 -0.138,1.522 -0.223,2.353 l -2.621,23.238 -1.642,0.319 0.648,3.335 12.237,-2.379 -0.648,-3.335 -1.693,0.33 1.367,-19.691 5.552,9.414 -0.862,9.099 -1.642,0.319 0.648,3.335 11.35,-2.206 -0.648,-3.335 -1.073,0.209 0.282,-4.278 c 1.867,2.26 3.614,3.902 5.226,4.926 1.618,1.023 3.075,1.406 4.386,1.151 0.548,-0.107 1.261,-0.358 2.141,-0.753 0.879,-0.402 1.506,-0.637 1.887,-0.711 0.353,-0.068 0.693,-0.089 1.028,-0.057 0.335,0.032 0.663,0.103 0.977,0.221 z m 25.239,-13.409 11.022,-7.718 -1.949,-2.782 -1.761,1.233 -3.968,-5.668 6.341,-4.439 3.968,5.667 -1.761,1.233 1.948,2.783 11.041,-7.731 -1.949,-2.782 -1.779,1.245 -13.327,-19.033 1.779,-1.246 -1.923,-2.746 -11.041,7.73 1.923,2.747 1.761,-1.233 7.066,10.09 -6.34,4.44 -7.066,-10.091 1.761,-1.233 -1.923,-2.746 -11.022,7.718 1.923,2.746 1.761,-1.233 13.327,19.034 -1.761,1.233 1.949,2.782 z m 39.572,-39.749 c -0.89,1.139 -2.076,1.609 -3.554,1.403 -1.483,-0.199 -3.188,-1.056 -5.13,-2.574 -1.394,-1.088 -2.702,-2.381 -3.942,-3.88 -1.235,-1.506 -2.293,-3.095 -3.158,-4.776 -0.833,-1.592 -1.288,-2.999 -1.382,-4.227 -0.087,-1.222 0.19,-2.244 0.836,-3.071 0.89,-1.139 2.071,-1.603 3.55,-1.398 1.474,0.211 3.19,1.078 5.156,2.613 1.393,1.089 2.701,2.381 3.941,3.881 1.235,1.504 2.292,3.084 3.172,4.758 0.819,1.562 1.267,2.955 1.36,4.182 0.087,1.223 -0.194,2.251 -0.849,3.089 z m 4.104,1.028 c 2.728,-3.492 3.83,-7.287 3.301,-11.387 -0.52,-4.102 -2.562,-7.542 -6.118,-10.32 -3.567,-2.786 -7.398,-3.936 -11.504,-3.448 -4.096,0.487 -7.511,2.475 -10.239,5.967 -2.733,3.497 -3.839,7.297 -3.319,11.409 0.52,4.102 2.558,7.548 6.113,10.325 3.556,2.778 7.392,3.923 11.498,3.434 4.116,-0.489 7.535,-2.482 10.268,-5.98 z m 14.875,-20.855 1.233,-2.768 -0.928,-0.605 6.933,-15.57 1.052,0.324 1.232,-2.768 -8.111,-4.294 -1.181,2.654 c 1.166,0.736 1.906,1.563 2.226,2.485 0.321,0.922 0.222,1.954 -0.291,3.107 l -0.218,0.489 -20.657,-9.197 1.056,-2.372 -3.062,-1.364 -5.828,13.09 3.062,1.363 1.057,-2.372 20.657,9.197 -0.218,0.489 c -0.507,1.139 -1.206,1.897 -2.095,2.272 -0.89,0.375 -2,0.378 -3.341,-0.002 l -1.196,2.688 8.618,3.154 z m 16.248,-53.709 -6.144,-1.194 -0.582,2.996 1.194,0.277 c 0.362,0.564 0.556,1.334 0.583,2.311 0.027,0.977 -0.103,2.222 -0.396,3.727 l -0.353,1.815 -6.431,-1.25 1.485,-7.641 2.154,0.418 0.582,-2.996 -7.915,-1.538 -0.582,2.996 1.858,0.361 -1.486,7.641 -11.753,-2.284 0.352,-1.815 c 0.255,-1.311 0.648,-2.408 1.173,-3.3 0.531,-0.891 1.2,-1.598 2.02,-2.127 l 1.908,0.372 0.583,-2.997 -7.685,-1.493 -4.225,21.735 3.292,0.64 0.41,-2.11 22.808,4.434 -0.41,2.109 3.335,0.649 4.225,-21.736 z m 0.934,-11.679 0.256,-14.7 -3.396,-0.059 -0.059,3.396 -22.932,-0.4 0.03,-1.68 c 0.033,-1.929 0.41,-3.317 1.122,-4.156 0.719,-0.838 1.961,-1.359 3.725,-1.556 l 0.05,-2.861 -9.727,0.667 -0.052,2.985 1.312,0.067 -0.31,17.774 3.352,0.059 0.038,-2.149 23.232,0.405 -0.038,2.149 3.397,0.059" /><path
       id="path270"
       style="fill:#00aeef;fill-opacity:1;fill-rule:nonzero;stroke:#231f20;stroke-width:1.19500005;stroke-linecap:butt;stroke-linejoin:miter;stroke-miterlimit:22.9260006;stroke-dasharray:none;stroke-opacity:1"
       d="m 164.909,436.039 12.72,-0.222 0.022,1.269 c 0.029,1.658 -0.534,3.026 -1.69,4.088 -1.155,1.069 -2.687,1.617 -4.594,1.65 -1.922,0.034 -3.465,-0.497 -4.636,-1.585 -1.171,-1.087 -1.776,-2.574 -1.809,-4.444 l -0.013,-0.756 z m -3.892,-11.071 0.234,13.41 c 0.072,4.1 1.009,7.342 2.812,9.725 1.81,2.383 4.193,3.544 7.156,3.492 1.908,-0.033 3.6,-0.605 5.078,-1.71 1.477,-1.112 2.58,-2.643 3.302,-4.607 0.277,0.325 0.605,0.621 0.977,0.9 0.372,0.272 0.838,0.543 1.401,0.82 l 6.116,3.166 0.033,1.848 3.352,-0.058 -0.183,-10.512 c -0.648,-0.107 -1.252,-0.228 -1.827,-0.379 -0.567,-0.145 -1.084,-0.312 -1.542,-0.509 l -6.781,-2.949 -0.032,-1.849 6.727,-0.117 0.037,2.105 3.352,-0.058 -0.231,-13.241 -3.352,0.059 0.037,2.149 -23.232,0.405 -0.038,-2.149 -3.396,0.059 z m 1.814,37.417 3.027,13.111 3.31,-0.764 -0.484,-2.095 22.641,-5.227 0.483,2.095 3.267,-0.754 -3.027,-13.111 -3.267,0.754 0.484,2.095 -22.64,5.227 -0.484,-2.095 -3.31,0.764 z m 19.981,38.497 c 0.005,-0.115 0.004,-0.227 -0.014,-0.339 -0.015,-0.106 -0.05,-0.219 -0.103,-0.34 -0.146,-0.328 -0.483,-0.813 -1.002,-1.457 -0.523,-0.651 -0.889,-1.202 -1.092,-1.658 -0.397,-0.891 -0.478,-1.795 -0.246,-2.718 0.235,-0.915 0.774,-1.814 1.625,-2.699 l 12.088,-1.334 -11.256,10.545 z m -4.509,7.749 1.988,0.641 c 0.612,-0.899 1.604,-1.99 2.962,-3.27 l 0.21,-0.214 15.283,-14.449 c 0.62,-0.59 1.222,-1.115 1.804,-1.575 0.586,-0.47 1.17,-0.89 1.752,-1.278 l -3.288,-7.386 c -0.57,0.092 -1.194,0.186 -1.878,0.274 -0.687,0.081 -1.536,0.177 -2.555,0.286 l -23.423,2.245 -0.681,-1.528 -3.103,1.381 5.139,11.542 3.103,-1.382 -0.647,-1.454 4.761,-0.562 c -1.987,1.961 -3.322,3.921 -4.031,5.882 -0.702,1.959 -0.708,3.713 -0.019,5.261 0.233,0.523 0.638,1.162 1.215,1.917 0.584,0.752 0.953,1.311 1.117,1.679 0.14,0.315 0.237,0.641 0.284,0.982 0.047,0.34 0.052,0.675 0.007,1.008 z m 19.293,27.383 4.931,-3.853 -1.879,-2.405 -0.993,0.72 c -0.662,-0.097 -1.37,-0.456 -2.125,-1.077 -0.755,-0.62 -1.61,-1.535 -2.554,-2.744 l -1.138,-1.457 5.163,-4.033 4.792,6.134 -1.728,1.351 1.879,2.405 6.354,-4.965 -1.88,-2.405 -1.491,1.166 -4.793,-6.134 9.436,-7.372 1.138,1.457 c 0.822,1.052 1.392,2.068 1.721,3.049 0.324,0.986 0.419,1.955 0.28,2.92 l -1.533,1.197 1.88,2.405 6.169,-4.82 -13.633,-17.448 -2.642,2.064 1.323,1.694 -18.309,14.305 -1.324,-1.694 -2.677,2.092 13.633,17.448 z m 18.325,13.251 8.513,-9.454 0.943,0.849 c 1.232,1.109 1.848,2.454 1.837,4.023 -0.006,1.575 -0.65,3.068 -1.926,4.486 -1.286,1.429 -2.726,2.195 -4.321,2.31 -1.593,0.114 -3.094,-0.456 -4.484,-1.709 l -0.562,-0.505 z m -10.75,-4.704 9.966,8.974 c 3.048,2.744 6.058,4.269 9.03,4.576 2.977,0.301 5.452,-0.649 7.435,-2.852 1.277,-1.418 2.012,-3.046 2.212,-4.88 0.195,-1.838 -0.173,-3.689 -1.117,-5.557 0.427,0.019 0.866,-0.02 1.325,-0.101 0.452,-0.086 0.969,-0.243 1.555,-0.466 l 6.486,-2.314 1.374,1.237 2.244,-2.491 -7.813,-7.035 c -0.52,0.401 -1.02,0.76 -1.523,1.077 -0.493,0.317 -0.967,0.581 -1.424,0.781 l -6.781,2.948 -1.374,-1.237 4.502,-5 1.564,1.409 2.244,-2.492 -9.841,-8.861 -2.244,2.492 1.598,1.438 -15.548,17.268 -1.597,-1.439 -2.273,2.525 z m 52.778,26.256 c -0.072,-0.088 -0.148,-0.17 -0.237,-0.242 -0.082,-0.068 -0.183,-0.13 -0.304,-0.183 -0.328,-0.146 -0.903,-0.282 -1.72,-0.413 -0.823,-0.134 -1.465,-0.299 -1.92,-0.502 -0.892,-0.396 -1.557,-1.014 -2.002,-1.854 -0.438,-0.838 -0.638,-1.867 -0.598,-3.094 l 8.09,-9.079 -1.309,15.367 z m 1.836,8.776 1.906,-0.854 c -0.147,-1.077 -0.141,-2.552 0.012,-4.411 l 0.013,-0.3 1.688,-20.964 c 0.067,-0.854 0.163,-1.646 0.288,-2.378 0.121,-0.741 0.274,-1.444 0.447,-2.122 l -7.386,-3.288 c -0.361,0.449 -0.763,0.937 -1.213,1.46 -0.456,0.519 -1.021,1.159 -1.707,1.922 l -15.904,17.341 -1.529,-0.68 -1.381,3.103 11.542,5.139 1.381,-3.103 -1.454,-0.648 3.162,-3.603 c -0.164,2.786 0.155,5.136 0.941,7.068 0.789,1.926 1.958,3.233 3.506,3.923 0.523,0.232 1.251,0.436 2.185,0.611 0.937,0.168 1.585,0.336 1.954,0.5 0.315,0.141 0.605,0.318 0.868,0.54 0.263,0.221 0.491,0.467 0.681,0.744 z m 7.167,2.173 12.867,3.934 0.994,-3.249 -2.056,-0.628 6.793,-22.221 2.056,0.629 0.981,-3.207 -12.868,-3.934 -0.98,3.207 2.055,0.628 -6.793,22.221 -2.056,-0.629 -0.993,3.249 z m 46.564,7.983 0.436,-6.243 -3.044,-0.213 -0.13,1.219 c -0.515,0.427 -1.256,0.714 -2.222,0.86 -0.967,0.145 -2.218,0.168 -3.748,0.061 l -1.844,-0.129 0.456,-6.535 7.766,0.542 -0.153,2.189 3.045,0.213 0.562,-8.044 -3.045,-0.213 -0.131,1.889 -7.766,-0.543 0.835,-11.945 1.845,0.129 c 1.332,0.093 2.468,0.349 3.418,0.761 0.949,0.42 1.732,0.997 2.356,1.746 l -0.135,1.94 3.044,0.213 0.546,-7.809 -22.088,-1.545 -0.234,3.345 2.144,0.149 -1.62,23.179 -2.145,-0.15 -0.237,3.389 22.089,1.545 z m 45.88,-13.468 c -0.095,-0.026 -0.203,-0.043 -0.316,-0.051 -0.121,-0.006 -0.232,0 -0.347,0.023 -0.353,0.068 -0.916,0.29 -1.689,0.657 -0.773,0.367 -1.407,0.602 -1.904,0.699 -0.814,0.158 -1.583,0.046 -2.308,-0.336 -0.726,-0.39 -1.511,-1.119 -2.362,-2.194 l 0.876,-12.832 8.05,14.034 z m 6.539,6.151 1.094,-1.797 c -0.739,-0.799 -1.587,-2.009 -2.542,-3.617 l -0.14,-0.257 -10.663,-18.137 c -0.435,-0.738 -0.811,-1.442 -1.131,-2.127 -0.326,-0.677 -0.605,-1.341 -0.848,-1.981 l -7.512,1.461 c -0.033,0.791 -0.085,1.564 -0.142,2.307 -0.059,0.737 -0.13,1.445 -0.201,2.117 l -0.984,7.897 -3.953,-6.803 c -0.392,-0.671 -0.747,-1.342 -1.066,-2.02 -0.324,-0.67 -0.609,-1.369 -0.871,-2.095 l -7.598,1.476 c -0.023,0.648 -0.062,1.335 -0.12,2.072 -0.066,0.737 -0.138,1.521 -0.223,2.352 l -2.62,23.239 -1.643,0.319 0.648,3.334 12.237,-2.378 -0.648,-3.335 -1.693,0.329 1.367,-19.691 5.552,9.415 -0.862,9.099 -1.642,0.319 0.648,3.335 11.35,-2.207 -0.648,-3.334 -1.073,0.208 0.282,-4.277 c 1.867,2.26 3.614,3.901 5.226,4.926 1.618,1.023 3.075,1.405 4.387,1.15 0.547,-0.106 1.26,-0.357 2.14,-0.752 0.879,-0.403 1.506,-0.637 1.888,-0.711 0.352,-0.069 0.692,-0.09 1.027,-0.058 0.335,0.032 0.663,0.103 0.977,0.222 z m 25.239,-13.409 11.022,-7.718 -1.949,-2.783 -1.761,1.233 -3.968,-5.667 6.341,-4.439 3.968,5.667 -1.761,1.233 1.948,2.782 11.041,-7.73 -1.949,-2.783 -1.779,1.246 -13.327,-19.033 1.779,-1.246 -1.923,-2.746 -11.04,7.73 1.923,2.746 1.76,-1.233 7.066,10.091 -6.34,4.44 -7.066,-10.091 1.761,-1.233 -1.923,-2.747 -11.022,7.718 1.923,2.747 1.761,-1.233 13.327,19.033 -1.761,1.233 1.949,2.783 z m 39.572,-39.749 c -0.89,1.139 -2.076,1.608 -3.554,1.403 -1.483,-0.2 -3.188,-1.057 -5.13,-2.574 -1.393,-1.089 -2.702,-2.381 -3.942,-3.88 -1.235,-1.506 -2.293,-3.095 -3.158,-4.777 -0.833,-1.591 -1.288,-2.998 -1.382,-4.226 -0.087,-1.223 0.19,-2.245 0.836,-3.072 0.89,-1.138 2.071,-1.603 3.55,-1.397 1.474,0.211 3.19,1.077 5.156,2.613 1.393,1.089 2.701,2.381 3.941,3.88 1.236,1.505 2.292,3.085 3.172,4.759 0.819,1.562 1.267,2.955 1.36,4.182 0.088,1.223 -0.194,2.25 -0.849,3.089 z m 4.104,1.027 c 2.728,-3.492 3.83,-7.286 3.301,-11.387 -0.52,-4.101 -2.562,-7.541 -6.118,-10.319 -3.567,-2.787 -7.398,-3.936 -11.504,-3.448 -4.096,0.487 -7.511,2.474 -10.239,5.966 -2.733,3.498 -3.839,7.298 -3.319,11.41 0.52,4.102 2.558,7.548 6.113,10.325 3.556,2.778 7.392,3.922 11.498,3.434 4.116,-0.49 7.535,-2.483 10.268,-5.981 z m 14.875,-20.854 1.233,-2.768 -0.928,-0.605 6.933,-15.57 1.052,0.324 1.232,-2.769 -8.111,-4.294 -1.181,2.655 c 1.166,0.736 1.906,1.563 2.226,2.485 0.321,0.921 0.222,1.954 -0.291,3.107 l -0.218,0.489 -20.657,-9.197 1.056,-2.373 -3.062,-1.363 -5.828,13.089 3.062,1.364 1.057,-2.372 20.657,9.197 -0.218,0.489 c -0.507,1.139 -1.206,1.897 -2.095,2.271 -0.89,0.375 -2,0.379 -3.341,-10e-4 l -1.196,2.688 8.618,3.154 z m 16.248,-53.709 -6.144,-1.194 -0.582,2.996 1.194,0.277 c 0.362,0.563 0.556,1.334 0.583,2.31 0.027,0.977 -0.103,2.223 -0.396,3.728 l -0.353,1.815 -6.431,-1.25 1.485,-7.642 2.154,0.419 0.582,-2.996 -7.915,-1.539 -0.582,2.996 1.858,0.361 -1.486,7.642 -11.753,-2.285 0.353,-1.815 c 0.254,-1.31 0.647,-2.408 1.172,-3.3 0.531,-0.89 1.2,-1.598 2.02,-2.126 l 1.909,0.371 0.582,-2.996 -7.685,-1.494 -4.224,21.736 3.291,0.64 0.41,-2.11 22.808,4.433 -0.41,2.11 3.335,0.648 4.225,-21.735 z m 0.934,-11.679 0.257,-14.7 -3.397,-0.06 -0.059,3.397 -22.932,-0.4 0.03,-1.68 c 0.033,-1.93 0.41,-3.317 1.122,-4.156 0.719,-0.839 1.961,-1.36 3.725,-1.557 l 0.05,-2.861 -9.727,0.667 -0.052,2.986 1.312,0.067 -0.31,17.774 3.352,0.059 0.038,-2.15 23.232,0.406 -0.038,2.149 3.397,0.059 z" /><g
       transform="matrix(-0.540475,-0.800036,0.936623,-0.463792,0,0)"
       id="g272"><path
         id="path274"
         style="fill:#00a650;fill-opacity:1;fill-rule:evenodd;stroke:#00a650;stroke-width:0.65899998;stroke-linecap:butt;stroke-linejoin:miter;stroke-miterlimit:22.9260006;stroke-dasharray:none;stroke-opacity:1"
         d="m -508.005,2.6425 c -3.371,-2.590647 -3.858,-1.4888 -4.169,-0.1691 -0.266,1.1287 0.557,7.9456 0.631,8.3066 0.197,0.962 0.812,3.683 1.026,4.722 0.61,2.977 1.516,5.94 3.427,8.798 1.4,2.095 2.733,4.297 3.652,6.658 0.806,2.073 2.266,3.598 3.412,5.297 1.823,2.703 3.496,5.766 5.28,8.219 0.596,0.819 1.495,1.119 2.061,1.889 -2.064,-3.752 -5.66,-10.101 -7.579,-16.731 -0.369,-1.274 -0.602,-2.595 -1.21,-3.87 -0.183,-0.382 -0.214,-0.819 -0.301,-1.239 -0.609,-2.944 -0.665,-6.205 -2.18,-8.879 -0.78,-1.377 -1.213,-2.999 -1.336,-4.821 -0.013,-0.199 -0.578,-0.8659 -0.661,-1.0634 -0.575,-1.3819 -2.245,-3.1586 -1.511,-4.3773 0.639,-1.0597 -0.52,-1.7612 -0.542,-2.7398 z" /></g><g
       transform="matrix(-0.540477,-0.800039,0.93662,-0.463791,0,0)"
       id="g276"><path
         id="path278"
         style="fill:#00a650;fill-opacity:1;fill-rule:evenodd;stroke:#00a650;stroke-width:0.65899998;stroke-linecap:butt;stroke-linejoin:miter;stroke-miterlimit:22.9260006;stroke-dasharray:none;stroke-opacity:1"
         d="m -519.527,13.256 c -2.435,-1.871 -2.787,-1.075 -3.011,-0.122 -0.192,0.815 0.402,5.738 0.455,5.999 0.143,0.695 0.587,2.66 0.741,3.41 0.441,2.15 1.095,4.29 2.475,6.354 1.011,1.513 1.974,3.103 2.637,4.808 0.583,1.498 1.637,2.599 2.464,3.826 1.317,1.952 2.525,4.164 3.814,5.935 0.43,0.592 1.08,0.808 1.488,1.365 -1.491,-2.71 -4.087,-7.295 -5.473,-12.084 -0.266,-0.919 -0.435,-1.873 -0.874,-2.794 -0.132,-0.276 -0.155,-0.591 -0.218,-0.895 -0.439,-2.126 -0.479,-4.481 -1.574,-6.412 -0.563,-0.995 -0.876,-2.166 -0.964,-3.482 -0.01,-0.144 -0.418,-0.625 -0.478,-0.768 -0.415,-0.998 -1.621,-2.281 -1.091,-3.161 0.461,-0.765 -0.376,-1.272 -0.391,-1.979 z" /></g><g
       transform="matrix(0.971806,-0.408008,0.475145,0.829525,0,0)"
       id="g280"><path
         id="path282"
         style="fill:#00a650;fill-opacity:1;fill-rule:evenodd;stroke:#00a650;stroke-width:0.66100001;stroke-linecap:butt;stroke-linejoin:miter;stroke-miterlimit:22.9260006;stroke-dasharray:none;stroke-opacity:1"
         d="M 46.031,529.034 C 22.999,513.405 16.054,499.112 7.172,481.879 5.1393,477.935 2.1222,468.666 0.051136,461.645 -0.050713,461.3 -0.50519,460.881 -0.24732,460.626 l 2.47272,-2.435 c 0.2049,-0.202 0.0675,0.545 0.1049,0.82 1.5678,11.423 7.6502,24.545 14.1857,34.954 1.563,2.49 2.733,5.51 4.636,7.696 3.215,3.695 6.532,7.407 9.646,11.083 5.106,6.03 28.516,23.41 25.391,21.736 l -10.158,-5.446 z" /></g><g
       transform="matrix(-0.123675,-0.916262,1.077008,-0.106555,0,0)"
       id="g284"><path
         id="path286"
         style="fill:#00a650;fill-opacity:1;fill-rule:evenodd;stroke:#00a650;stroke-width:0.65799999;stroke-linecap:butt;stroke-linejoin:miter;stroke-miterlimit:22.9260006;stroke-dasharray:none;stroke-opacity:1"
         d="m -485.46,236.746 c -0.965,-1.325 -1.373,-1.014 -1.745,-0.605 -0.319,0.35 -1.208,2.78 -1.242,2.913 -0.091,0.354 -0.324,1.362 -0.422,1.744 -0.282,1.094 -0.434,2.223 -0.14,3.448 0.215,0.897 -0.232,2.009 -0.27,2.933 -0.034,0.813 -0.241,1.891 -0.061,2.62 0.285,1.161 0.687,2.483 1.001,3.554 0.105,0.357 1.25,2.273 1.351,2.609 -0.197,-1.549 -1.007,-6.658 -0.619,-9.169 0.074,-0.482 0.216,-0.963 0.188,-1.478 -0.008,-0.154 0.058,-0.307 0.098,-0.461 0.275,-1.083 1.38,-2.036 1.221,-3.146 -0.081,-0.572 0.029,-1.181 0.308,-1.818 0.031,-0.07 -0.089,-0.371 -0.088,-0.449 0.006,-0.547 -0.382,-1.371 0.152,-1.69 0.465,-0.278 0.099,-0.669 0.268,-1.005 z" /></g><g
       transform="matrix(-1.081681,0.009292,0.010834,0.924394,0,0)"
       id="g288"><path
         id="path290"
         style="fill:#00a650;fill-opacity:1;fill-rule:evenodd;stroke:#00a650;stroke-width:0.66000003;stroke-linecap:butt;stroke-linejoin:miter;stroke-miterlimit:22.9260006;stroke-dasharray:none;stroke-opacity:1"
         d="m -199.207,427.84 c -3.904,-1.17 -3.985,-0.183 -3.836,0.929 0.128,0.951 3.102,6.077 3.287,6.341 0.493,0.703 1.94,2.676 2.473,3.435 1.526,2.175 3.316,4.263 5.982,6.014 0.978,0.642 2.329,3.035 2.028,2.026 -0.954,-3.197 -1.231,-6.599 -2.184,-9.796 -0.375,-1.256 -1.909,-1.842 -2.615,-3.237 -0.077,-0.152 -0.808,-0.53 -0.947,-0.664 -0.974,-0.935 -3.069,-1.9 -2.801,-3.041 0.233,-0.992 -1.048,-1.246 -1.387,-2.007 z" /></g><g
       transform="matrix(-1.07454,0.083515,0.097873,0.923024,0,0)"
       id="g292"><path
         id="path294"
         style="fill:#00a650;fill-opacity:1;fill-rule:evenodd;stroke:#00a650;stroke-width:0.65899998;stroke-linecap:butt;stroke-linejoin:miter;stroke-miterlimit:22.9260006;stroke-dasharray:none;stroke-opacity:1"
         d="m -175.321,453.086 c -4.683,-1.558 -4.847,-0.389 -4.737,0.94 0.093,1.137 3.383,7.36 3.591,7.683 0.555,0.857 2.19,3.265 2.79,4.191 1.718,2.651 3.764,5.212 6.9,7.409 2.298,1.609 4.559,3.339 6.409,5.327 1.625,1.746 3.745,2.847 5.668,4.105 3.047,1.994 6.91,6.107 6.835,4.492 l -0.042,-0.913 c -0.147,-3.148 -6.395,-5.944 -9.359,-9.774 -0.856,-1.106 -1.577,-2.293 -2.702,-3.337 -0.337,-0.313 -0.524,-0.718 -0.768,-1.092 -1.705,-2.621 -2.899,-5.687 -5.527,-7.814 -1.354,-1.096 -2.403,-2.514 -3.173,-4.203 -0.084,-0.185 -0.95,-0.666 -1.111,-0.831 -1.125,-1.154 -3.616,-2.392 -3.215,-3.737 0.348,-1.17 -1.196,-1.527 -1.559,-2.446 z" /></g><g
       transform="matrix(-1.074579,0.083642,0.098012,0.922968,0,0)"
       id="g296"><path
         id="path298"
         style="fill:#00a650;fill-opacity:1;fill-rule:evenodd;stroke:#00a650;stroke-width:0.65899998;stroke-linecap:butt;stroke-linejoin:miter;stroke-miterlimit:22.9260006;stroke-dasharray:none;stroke-opacity:1"
         d="m -189.842,464.977 c -5.211,-1.734 -5.393,-0.433 -5.272,1.046 0.104,1.266 3.764,8.192 3.996,8.551 0.618,0.954 2.437,3.634 3.104,4.665 1.912,2.951 4.188,5.801 7.678,8.246 2.558,1.791 5.074,3.716 7.132,5.929 1.808,1.944 4.22,3.119 6.307,4.57 3.321,2.307 6.593,5.037 9.768,7.093 1.061,0.687 2.3,0.737 3.304,1.381 -4.027,-3.339 -10.969,-8.96 -15.927,-15.37 -0.952,-1.231 -1.754,-2.552 -3.006,-3.714 -0.375,-0.348 -0.583,-0.798 -0.854,-1.215 -1.898,-2.917 -3.227,-6.33 -6.151,-8.697 -1.506,-1.22 -2.674,-2.798 -3.53,-4.678 -0.094,-0.206 -1.058,-0.741 -1.236,-0.924 -1.253,-1.285 -4.025,-2.663 -3.578,-4.16 0.388,-1.302 -1.331,-1.7 -1.735,-2.723 z" /></g><g
       transform="matrix(-1.074462,0.079657,0.093434,0.923772,0,0)"
       id="g300"><path
         id="path302"
         style="fill:#00a650;fill-opacity:1;fill-rule:evenodd;stroke:#00a650;stroke-width:0.65799999;stroke-linecap:butt;stroke-linejoin:miter;stroke-miterlimit:22.9260006;stroke-dasharray:none;stroke-opacity:1"
         d="m -207.83,472.859 c -3.7,-1.223 -3.826,-0.3 -3.737,0.749 0.077,0.897 2.688,5.804 2.853,6.058 0.44,0.676 1.736,2.574 2.212,3.304 1.362,2.09 2.982,4.108 5.462,5.837 1.818,1.267 3.607,2.628 5.071,4.195 1.286,1.376 2.999,2.206 4.483,3.231 2.36,1.632 4.686,3.563 6.942,5.017 0.754,0.486 1.633,0.52 2.347,0.975 -2.863,-2.363 -7.799,-6.339 -11.329,-10.878 -0.678,-0.871 -1.25,-1.807 -2.14,-2.629 -0.267,-0.247 -0.415,-0.566 -0.609,-0.861 -1.352,-2.066 -2.301,-4.484 -4.38,-6.159 -1.071,-0.863 -1.903,-1.98 -2.514,-3.312 -0.067,-0.146 -0.752,-0.524 -0.879,-0.654 -0.891,-0.909 -2.86,-1.883 -2.546,-2.945 0.272,-0.924 -0.948,-1.203 -1.236,-1.928 z" /></g><g
       transform="matrix(-1.074737,0.112265,0.130656,0.916812,0,0)"
       id="g304"><path
         id="path306"
         style="fill:#00a650;fill-opacity:1;fill-rule:evenodd;stroke:#00a650;stroke-width:0.66100001;stroke-linecap:butt;stroke-linejoin:miter;stroke-miterlimit:22.9260006;stroke-dasharray:none;stroke-opacity:1"
         d="m -205.44,488.146 c -3.228,-1.13 -3.36,-0.32 -3.305,0.605 0.047,0.79 2.234,5.146 2.374,5.372 0.371,0.6 1.469,2.289 1.871,2.939 1.151,1.859 2.532,3.657 4.675,5.215 1.571,1.141 3.114,2.365 4.367,3.764 1.101,1.229 2.589,1.985 3.871,2.908 2.04,1.47 4.044,3.203 5.996,4.515 0.653,0.438 1.425,0.481 2.043,0.892 -2.466,-2.12 -6.719,-5.691 -9.723,-9.735 -0.577,-0.777 -1.059,-1.608 -1.823,-2.345 -0.23,-0.221 -0.353,-0.504 -0.517,-0.766 -1.143,-1.838 -1.924,-3.979 -3.715,-5.483 -0.923,-0.775 -1.629,-1.77 -2.137,-2.951 -0.056,-0.129 -0.65,-0.472 -0.759,-0.588 -0.763,-0.813 -2.474,-1.698 -2.174,-2.628 0.261,-0.809 -0.806,-1.072 -1.044,-1.714 z" /></g><g
       transform="matrix(-1.062822,0.183188,0.212632,0.904242,0,0)"
       id="g308"><path
         id="path310"
         style="fill:#00a650;fill-opacity:1;fill-rule:evenodd;stroke:#00a650;stroke-width:0.662;stroke-linecap:butt;stroke-linejoin:miter;stroke-miterlimit:22.9260006;stroke-dasharray:none;stroke-opacity:1"
         d="m -184.077,508.348 c -2.053,-0.804 -2.171,-0.287 -2.171,0.307 0,0.508 1.252,3.357 1.333,3.505 0.219,0.394 0.866,1.505 1.102,1.931 0.676,1.222 1.503,2.41 2.835,3.461 0.976,0.771 1.51,2.094 2.27,3.023 0.668,0.816 1.4,1.982 2.197,2.607 1.269,0.993 2.788,2.085 4.005,2.974 0.407,0.297 3.138,1.588 3.524,1.867 -1.52,-1.421 -6.683,-6.023 -8.477,-8.692 -0.345,-0.512 -0.626,-1.058 -1.094,-1.549 -0.14,-0.147 -0.21,-0.332 -0.306,-0.504 -0.671,-1.207 -0.446,-2.714 -1.552,-3.723 -0.569,-0.52 -0.99,-1.176 -1.274,-1.946 -0.031,-0.084 -0.404,-0.319 -0.47,-0.396 -0.464,-0.54 -1.541,-1.15 -1.311,-1.74 0.201,-0.512 -0.482,-0.708 -0.611,-1.125 z" /></g><g
       transform="matrix(-0.540477,-0.800039,0.936619,-0.463791,0,0)"
       id="g312"><path
         id="path314"
         style="fill:#00a650;fill-opacity:1;fill-rule:evenodd;stroke:#00a650;stroke-width:0.65899998;stroke-linecap:butt;stroke-linejoin:miter;stroke-miterlimit:22.9260006;stroke-dasharray:none;stroke-opacity:1"
         d="m -450.452,-22.575 c -1.963,-1.508 -2.246,-0.867 -2.427,-0.098 -0.155,0.656 0.324,4.624 0.367,4.834 0.115,0.56 0.473,2.144 0.597,2.749 0.355,1.732 0.883,3.457 1.995,5.1207 0.815,1.2193 1.591,2.5012 2.126,3.8753 0.469,1.2067 1.318,2.0945 1.985,3.0832 1.062,1.5734 2.035,3.35593 3.074,4.7838 0.347,0.4771 0.87,0.6512 1.2,1.0998 -1.202,-2.18385 -3.295,-5.8793 -4.412,-9.7387 -0.215,-0.741 -0.35,-1.5102 -0.704,-2.2521 -0.107,-0.2226 -0.125,-0.4767 -0.175,-0.7217 -0.355,-1.7133 -0.387,-3.6113 -1.269,-5.1673 -0.454,-0.802 -0.706,-1.746 -0.777,-2.807 -0.008,-0.116 -0.338,-0.504 -0.385,-0.618 -0.335,-0.805 -1.307,-1.839 -0.88,-2.548 0.372,-0.617 -0.303,-1.026 -0.315,-1.595 z" /></g><g
       transform="matrix(-0.540472,-0.800032,0.936628,-0.463795,0,0)"
       id="g316"><path
         id="path318"
         style="fill:#00a650;fill-opacity:1;fill-rule:evenodd;stroke:#00a650;stroke-width:0.65899998;stroke-linecap:butt;stroke-linejoin:miter;stroke-miterlimit:22.9260006;stroke-dasharray:none;stroke-opacity:1"
         d="m -531.057,22.521 c -1.622,-1.246 -1.856,-0.716 -2.005,-0.081 -0.128,0.543 0.268,3.821 0.303,3.995 0.095,0.463 0.391,1.771 0.493,2.271 0.294,1.432 0.73,2.857 1.649,4.232 0.673,1.007 0.815,2.521 1.256,3.656 0.388,0.997 0.746,2.382 1.297,3.199 0.877,1.3 1.952,2.753 2.81,3.933 0.286,0.394 2.388,2.288 2.66,2.659 -0.993,-1.805 -4.422,-7.694 -5.345,-10.884 -0.177,-0.612 -0.29,-1.248 -0.582,-1.861 -0.088,-0.184 -0.103,-0.394 -0.145,-0.596 -0.293,-1.416 0.285,-2.983 -0.443,-4.27 -0.375,-0.662 -0.584,-1.442 -0.643,-2.319 -0.006,-0.095 -0.278,-0.416 -0.318,-0.511 -0.276,-0.665 -1.08,-1.519 -0.727,-2.105 0.308,-0.51 -0.25,-0.847 -0.26,-1.318 z" /></g><g
       transform="matrix(-0.227767,-0.903408,1.057643,-0.195451,0,0)"
       id="g320"><path
         id="path322"
         style="fill:#16563e;fill-opacity:1;fill-rule:evenodd;stroke:#16563e;stroke-width:0.65899998;stroke-linecap:butt;stroke-linejoin:miter;stroke-miterlimit:22.9260006;stroke-dasharray:none;stroke-opacity:1"
         d="m -488.276,151.514 c -3.372,-2.591 -3.858,-1.489 -4.169,-0.169 -0.266,1.128 0.557,7.945 0.631,8.306 0.197,0.962 0.812,3.683 1.025,4.723 0.611,2.976 1.517,5.939 3.427,8.797 1.4,2.095 2.734,4.297 3.653,6.658 0.806,2.073 2.265,3.598 3.411,5.297 1.824,2.703 3.496,5.766 5.281,8.219 0.596,0.819 1.495,1.119 2.061,1.889 -2.064,-3.752 -5.66,-10.1 -7.579,-16.731 -0.369,-1.273 -0.603,-2.595 -1.211,-3.87 -0.182,-0.382 -0.213,-0.819 -0.301,-1.239 -0.609,-2.944 -0.664,-6.205 -2.179,-8.879 -0.78,-1.377 -1.213,-2.999 -1.336,-4.821 -0.013,-0.199 -0.579,-0.866 -0.661,-1.063 -0.575,-1.382 -2.246,-3.159 -1.511,-4.378 0.638,-1.059 -0.521,-1.761 -0.542,-2.739 z" /></g><g
       transform="matrix(-0.227767,-0.903411,1.057639,-0.19545,0,0)"
       id="g324"><path
         id="path326"
         style="fill:#16563e;fill-opacity:1;fill-rule:evenodd;stroke:#16563e;stroke-width:0.65899998;stroke-linecap:butt;stroke-linejoin:miter;stroke-miterlimit:22.9260006;stroke-dasharray:none;stroke-opacity:1"
         d="m -499.799,162.128 c -2.435,-1.871 -2.786,-1.075 -3.01,-0.122 -0.192,0.815 0.402,5.738 0.455,5.999 0.142,0.695 0.587,2.659 0.741,3.41 0.44,2.15 1.095,4.289 2.474,6.354 1.012,1.513 1.975,3.103 2.638,4.808 0.583,1.497 1.636,2.598 2.464,3.825 1.317,1.952 2.525,4.164 3.814,5.936 0.43,0.592 1.079,0.808 1.488,1.364 -1.491,-2.709 -4.088,-7.294 -5.474,-12.083 -0.266,-0.919 -0.434,-1.874 -0.874,-2.794 -0.131,-0.276 -0.154,-0.592 -0.217,-0.896 -0.44,-2.125 -0.48,-4.48 -1.574,-6.411 -0.563,-0.995 -0.876,-2.166 -0.965,-3.482 -0.009,-0.144 -0.418,-0.625 -0.477,-0.768 -0.415,-0.998 -1.622,-2.281 -1.091,-3.161 0.461,-0.766 -0.377,-1.272 -0.392,-1.979 z" /></g><g
       transform="matrix(1.071143,-0.133117,0.155021,0.914317,0,0)"
       id="g328"><path
         id="path330"
         style="fill:#16563e;fill-opacity:1;fill-rule:evenodd;stroke:#16563e;stroke-width:0.66100001;stroke-linecap:butt;stroke-linejoin:miter;stroke-miterlimit:22.9260006;stroke-dasharray:none;stroke-opacity:1"
         d="m 193.157,499.138 c -23.031,-15.63 -29.692,-30.044 -38.858,-47.156 -2.195,-4.097 -5.517,-14.126 -7.554,-21.317 -0.065,-0.232 -0.411,-0.563 -0.193,-0.687 l 2.658,-1.505 c 0.319,-0.18 0.244,0.644 0.366,0.968 5.142,13.598 11.424,30.399 14.067,34.627 1.557,2.493 2.733,5.51 4.636,7.697 3.215,3.694 6.531,7.406 9.645,11.083 5.107,6.029 28.516,23.41 25.392,21.735 l -10.159,-5.445 z" /></g><g
       transform="matrix(0.210582,-0.904568,1.063263,0.181431,0,0)"
       id="g332"><path
         id="path334"
         style="fill:#16563e;fill-opacity:1;fill-rule:evenodd;stroke:#16563e;stroke-width:0.65799999;stroke-linecap:butt;stroke-linejoin:miter;stroke-miterlimit:22.9260006;stroke-dasharray:none;stroke-opacity:1"
         d="m -407.82,365.227 c -0.965,-1.325 -1.373,-1.014 -1.745,-0.605 -0.319,0.35 -1.208,2.781 -1.242,2.914 -0.091,0.353 -0.324,1.361 -0.422,1.743 -0.282,1.095 -0.435,2.223 -0.141,3.448 0.216,0.897 -0.231,2.009 -0.269,2.934 -0.033,0.812 -0.24,1.89 -0.061,2.62 0.284,1.16 0.687,2.483 1.001,3.553 0.105,0.357 1.25,2.273 1.351,2.61 -0.197,-1.55 -1.007,-6.658 -0.619,-9.17 0.075,-0.482 0.215,-0.963 0.188,-1.477 -0.008,-0.154 0.058,-0.307 0.098,-0.462 0.276,-1.083 1.38,-2.036 1.221,-3.146 -0.081,-0.571 0.029,-1.181 0.308,-1.818 0.031,-0.069 -0.089,-0.371 -0.088,-0.449 0.006,-0.546 -0.382,-1.371 0.152,-1.69 0.465,-0.277 0.099,-0.668 0.268,-1.005 z" /></g><g
       transform="matrix(-1.032861,-0.275233,-0.320897,0.882673,0,0)"
       id="g336"><path
         id="path338"
         style="fill:#16563e;fill-opacity:1;fill-rule:evenodd;stroke:#16563e;stroke-width:0.66000003;stroke-linecap:butt;stroke-linejoin:miter;stroke-miterlimit:22.9260006;stroke-dasharray:none;stroke-opacity:1"
         d="m -319.163,337.279 c -3.904,-1.17 -3.985,-0.184 -3.836,0.929 0.128,0.951 3.102,6.077 3.287,6.341 0.493,0.703 1.94,2.676 2.473,3.435 0.381,0.544 1.002,2.845 1.188,2.231 0.669,-2.202 -0.045,-3.379 0.624,-5.58 0.049,-0.16 -0.764,-2.389 0.393,-2.118 0.72,0.168 -1.195,-1.133 -1.807,-1.634 -0.612,-0.501 -1.069,-1.027 -0.935,-1.598 0.233,-0.992 -1.048,-1.246 -1.387,-2.006 z" /></g><g
       transform="matrix(-1.052659,-0.202713,-0.237563,0.904228,0,0)"
       id="g340"><path
         id="path342"
         style="fill:#16563e;fill-opacity:1;fill-rule:evenodd;stroke:#16563e;stroke-width:0.65899998;stroke-linecap:butt;stroke-linejoin:miter;stroke-miterlimit:22.9260006;stroke-dasharray:none;stroke-opacity:1"
         d="m -302.485,372.688 c -4.682,-1.558 -4.846,-0.389 -4.737,0.94 0.094,1.137 3.384,7.361 3.592,7.683 0.555,0.857 2.19,3.265 2.79,4.191 1.718,2.652 3.763,5.212 6.899,7.409 2.299,1.61 6.228,7.802 6.41,5.327 l 0.4,-5.427 c 0.03,-0.412 -0.524,-0.717 -0.768,-1.092 -1.705,-2.621 -2.9,-5.687 -5.528,-7.814 -1.353,-1.096 -2.402,-2.514 -3.172,-4.203 -0.084,-0.185 -0.951,-0.666 -1.111,-0.83 -1.126,-1.154 -3.616,-2.393 -3.215,-3.738 0.348,-1.169 -1.196,-1.527 -1.56,-2.446 z" /></g><g
       transform="matrix(-1.052741,-0.202602,-0.23741,0.904211,0,0)"
       id="g344"><path
         id="path346"
         style="fill:#16563e;fill-opacity:1;fill-rule:evenodd;stroke:#16563e;stroke-width:0.65899998;stroke-linecap:butt;stroke-linejoin:miter;stroke-miterlimit:22.9260006;stroke-dasharray:none;stroke-opacity:1"
         d="m -317.01,384.593 c -5.211,-1.735 -5.393,-0.433 -5.272,1.046 0.104,1.265 3.765,8.192 3.997,8.55 0.617,0.954 2.436,3.634 3.104,4.665 1.911,2.951 4.187,5.801 7.677,8.246 2.558,1.792 5.074,3.717 7.133,5.93 1.807,1.943 4.219,3.119 6.306,4.569 1.038,0.721 3.08,3.379 3.098,2.253 l 0.038,-2.386 c 0.043,-2.721 -4.132,-4.359 -5.991,-6.763 -0.952,-1.23 -1.754,-2.551 -3.006,-3.713 -0.375,-0.349 -0.583,-0.799 -0.854,-1.216 -1.898,-2.917 -3.227,-6.329 -6.151,-8.697 -1.506,-1.219 -2.673,-2.798 -3.53,-4.678 -0.094,-0.205 -1.058,-0.74 -1.236,-0.924 -1.253,-1.284 -4.025,-2.663 -3.578,-4.16 0.388,-1.302 -1.331,-1.699 -1.735,-2.722 z" /></g><g
       transform="matrix(-1.051202,-0.206364,-0.242056,0.903774,0,0)"
       id="g348"><path
         id="path350"
         style="fill:#16563e;fill-opacity:1;fill-rule:evenodd;stroke:#16563e;stroke-width:0.65799999;stroke-linecap:butt;stroke-linejoin:miter;stroke-miterlimit:22.9260006;stroke-dasharray:none;stroke-opacity:1"
         d="m -334.713,391.971 c -3.7,-1.223 -3.826,-0.3 -3.736,0.749 0.076,0.897 2.687,5.804 2.852,6.058 0.44,0.676 1.736,2.574 2.212,3.304 1.362,2.09 2.982,4.108 5.462,5.837 1.818,1.267 3.607,2.629 5.071,4.195 1.286,1.376 2.999,2.206 4.483,3.232 2.36,1.631 4.686,3.563 6.942,5.016 0.754,0.486 1.633,0.52 2.347,0.975 -2.864,-2.362 -7.799,-6.339 -11.329,-10.878 -0.678,-0.871 -1.25,-1.807 -2.14,-2.629 -0.267,-0.246 -0.415,-0.565 -0.609,-0.861 -1.352,-2.066 -2.301,-4.484 -4.38,-6.159 -1.071,-0.862 -1.903,-1.98 -2.514,-3.312 -0.067,-0.146 -0.752,-0.524 -0.879,-0.654 -0.891,-0.909 -2.86,-1.882 -2.546,-2.945 0.272,-0.924 -0.947,-1.203 -1.236,-1.928 z" /></g><g
       transform="matrix(-1.063147,-0.175401,-0.204135,0.906925,0,0)"
       id="g352"><path
         id="path354"
         style="fill:#16563e;fill-opacity:1;fill-rule:evenodd;stroke:#16563e;stroke-width:0.66100001;stroke-linecap:butt;stroke-linejoin:miter;stroke-miterlimit:22.9260006;stroke-dasharray:none;stroke-opacity:1"
         d="m -334.585,411.433 c -3.227,-1.129 -3.359,-0.319 -3.304,0.606 0.047,0.79 2.234,5.146 2.373,5.371 0.372,0.601 1.469,2.29 1.872,2.94 1.151,1.858 2.531,3.657 4.675,5.215 1.57,1.141 3.114,2.365 4.367,3.764 1.101,1.229 2.589,1.985 3.871,2.908 2.04,1.47 4.044,3.203 5.996,4.515 0.652,0.438 1.425,0.481 2.043,0.892 -2.466,-2.12 -6.719,-5.691 -9.723,-9.735 -0.577,-0.777 -1.059,-1.609 -1.824,-2.345 -0.229,-0.221 -0.352,-0.504 -0.516,-0.766 -1.143,-1.838 -1.924,-3.979 -3.716,-5.483 -0.922,-0.775 -1.629,-1.77 -2.137,-2.951 -0.055,-0.129 -0.649,-0.472 -0.758,-0.588 -0.763,-0.813 -2.474,-1.698 -2.174,-2.628 0.26,-0.809 -0.806,-1.072 -1.045,-1.715 z" /></g><g
       transform="matrix(-1.077218,-0.104768,-0.121607,0.91649,0,0)"
       id="g356"><path
         id="path358"
         style="fill:#16563e;fill-opacity:1;fill-rule:evenodd;stroke:#16563e;stroke-width:0.662;stroke-linecap:butt;stroke-linejoin:miter;stroke-miterlimit:22.9260006;stroke-dasharray:none;stroke-opacity:1"
         d="m -318.557,441.779 c -2.053,-0.804 -2.17,-0.287 -2.17,0.308 0,0.508 1.251,3.356 1.333,3.504 0.218,0.395 0.866,1.506 1.102,1.932 0.676,1.221 1.503,2.409 2.835,3.461 0.976,0.771 1.51,2.094 2.27,3.022 0.667,0.816 1.4,1.983 2.197,2.607 1.268,0.994 2.787,2.085 4.005,2.975 0.407,0.297 3.138,1.588 3.524,1.867 -1.52,-1.421 -6.683,-6.023 -8.478,-8.692 -0.344,-0.513 -0.625,-1.058 -1.094,-1.549 -0.14,-0.148 -0.209,-0.332 -0.305,-0.505 -0.672,-1.207 -0.447,-2.714 -1.553,-3.722 -0.569,-0.52 -0.989,-1.176 -1.274,-1.946 -0.031,-0.085 -0.403,-0.319 -0.47,-0.396 -0.464,-0.541 -1.541,-1.15 -1.31,-1.74 0.201,-0.513 -0.482,-0.708 -0.612,-1.126 z" /></g><g
       transform="matrix(-0.227766,-0.903403,1.057649,-0.195452,0,0)"
       id="g360"><path
         id="path362"
         style="fill:#16563e;fill-opacity:1;fill-rule:evenodd;stroke:#16563e;stroke-width:0.65899998;stroke-linecap:butt;stroke-linejoin:miter;stroke-miterlimit:22.9260006;stroke-dasharray:none;stroke-opacity:1"
         d="m -511.328,171.391 c -1.622,-1.246 -1.856,-0.716 -2.005,-0.081 -0.129,0.543 0.267,3.821 0.303,3.995 0.095,0.463 0.391,1.771 0.493,2.271 0.294,1.432 0.73,2.857 1.648,4.232 0.674,1.007 0.815,2.521 1.257,3.657 0.388,0.997 0.745,2.381 1.297,3.198 0.876,1.3 1.952,2.753 2.81,3.933 0.286,0.394 2.388,2.288 2.66,2.659 -0.993,-1.804 -4.422,-7.694 -5.345,-10.884 -0.178,-0.612 -0.29,-1.248 -0.582,-1.861 -0.088,-0.183 -0.103,-0.394 -0.145,-0.596 -0.293,-1.416 0.285,-2.983 -0.443,-4.269 -0.375,-0.663 -0.584,-1.443 -0.643,-2.319 -0.006,-0.096 -0.278,-0.417 -0.318,-0.512 -0.276,-0.664 -1.08,-1.519 -0.727,-2.105 0.308,-0.51 -0.25,-0.847 -0.26,-1.318 z" /></g><path
       id="path364"
       style="fill:#231f20;fill-opacity:1;fill-rule:nonzero;stroke:#231f20;stroke-width:0.21600001;stroke-linecap:butt;stroke-linejoin:miter;stroke-miterlimit:22.9260006;stroke-dasharray:none;stroke-opacity:1"
       d="m 207.365,369.018 2.448,-3.249 -10.785,-14.863 17.726,5.651 2.294,-3.044 -1.005,-0.757 -1.117,1.482 -13.938,-12.978 1.029,-1.365 -0.98,-0.738 -3.774,5.007 0.98,0.739 1.369,-1.818 12.046,11.099 -17.701,-5.632 -0.685,0.909 10.76,14.843 -14.32,-8.08 1.211,-1.608 -0.98,-0.738 -2.975,3.949 0.98,0.738 0.905,-1.202 16.661,9.365 -1.154,1.532 1.005,0.758 z m 15.904,-20.03 3.3,-2.972 -9.938,-11.037 c -1.252,-1.391 -1.928,-2.674 -2.018,-3.848 -0.087,-1.17 0.407,-2.243 1.486,-3.215 1.111,-1 2.358,-1.424 3.734,-1.267 1.38,0.154 2.646,0.87 3.796,2.148 l 9.037,10.036 -1.519,1.368 0.842,0.936 3.288,-2.961 -13.516,-15.012 1.531,-1.379 -0.821,-0.911 -3.277,2.95 1.485,1.697 c -1.192,-0.134 -2.283,-0.061 -3.267,0.218 -0.979,0.275 -1.867,0.771 -2.658,1.483 -1.538,1.386 -2.323,2.826 -2.361,4.327 -0.034,1.498 0.679,3.057 2.138,4.678 l 9.416,10.458 -1.519,1.368 0.841,0.935 z m 20.378,-18.659 -6.118,-10.597 2.293,-1.324 c 2.02,-1.166 3.824,-1.596 5.411,-1.29 1.588,0.307 2.887,1.33 3.889,3.065 0.983,1.702 1.21,3.303 0.687,4.797 -0.523,1.495 -1.781,2.82 -3.765,3.966 l -2.397,1.383 z m -3.153,3.42 6.347,-3.665 c 2.624,-1.515 4.324,-3.247 5.092,-5.198 0.769,-1.951 0.559,-3.961 -0.634,-6.027 -0.954,-1.653 -2.314,-2.708 -4.084,-3.175 -1.772,-0.467 -3.719,-0.286 -5.849,0.556 l 2.049,-7.503 1.557,-0.9 -0.613,-1.062 -3.323,1.919 -2.347,8.77 -1.852,1.07 -2.598,-4.5 1.771,-1.022 -0.614,-1.062 -5.616,3.242 0.613,1.063 1.771,-1.023 9.471,16.405 -1.771,1.022 0.63,1.09 z m 39.411,-20.201 c -0.545,-0.133 -1.008,-0.207 -1.381,-0.211 -0.38,-0.008 -0.738,0.048 -1.075,0.165 -0.327,0.112 -0.825,0.389 -1.484,0.826 -0.664,0.44 -1.191,0.727 -1.588,0.863 -0.793,0.274 -1.672,0.249 -2.63,-0.07 -0.958,-0.319 -2.09,-0.966 -3.393,-1.948 l -0.133,-14.298 11.684,14.673 z m 2.048,1.23 0.291,-0.992 c -0.507,-0.28 -1.12,-0.885 -1.827,-1.811 -0.099,-0.127 -0.178,-0.227 -0.228,-0.293 l -9.449,-11.901 c -0.09,-0.101 -0.21,-0.254 -0.369,-0.46 -0.923,-1.135 -1.559,-2.064 -1.918,-2.783 l -2.583,0.889 c 0.079,0.517 0.137,1.04 0.174,1.582 0.03,0.538 0.043,1.188 0.034,1.934 l 0.004,5.294 -3.045,-3.803 c -0.044,-0.063 -0.123,-0.163 -0.235,-0.296 -0.95,-1.165 -1.638,-2.148 -2.052,-2.948 l -2.642,0.91 c 0.136,0.863 0.207,1.986 0.217,3.368 0.001,0.067 0.001,0.117 0,0.145 l 0.014,17.738 -1.641,0.565 0.41,1.19 5.448,-1.876 -0.41,-1.189 -1.482,0.51 -0.047,-19.058 5.487,6.838 0.097,10.313 -1.413,0.487 0.41,1.19 4.877,-1.68 -0.409,-1.19 -1.22,0.42 -0.108,-3.423 c 1.434,1.203 2.79,2.001 4.064,2.383 1.276,0.387 2.507,0.373 3.697,-0.037 0.416,-0.143 1.057,-0.441 1.916,-0.893 0.863,-0.457 1.523,-0.762 1.979,-0.919 0.421,-0.145 0.795,-0.235 1.116,-0.268 0.315,-0.037 0.601,-0.013 0.843,0.064 z m 6.294,-1.589 6.319,-1.459 -0.283,-1.226 -1.992,0.46 -4.261,-18.457 1.992,-0.46 -0.276,-1.195 -6.319,1.459 0.276,1.195 1.992,-0.46 4.261,18.457 -1.992,0.46 0.283,1.226 z m 13.512,-2.681 6.801,-0.956 -0.175,-1.246 -2.404,0.337 -2.614,-18.601 2.995,-0.421 c 1.459,-0.205 2.721,-0.044 3.775,0.491 1.06,0.534 2.01,1.491 2.856,2.876 l 0.822,-0.444 -2.731,-5.869 -1.111,0.156 0.241,0.851 -11.437,1.607 0.17,1.215 2.025,-0.285 2.636,18.758 -2.024,0.285 0.175,1.246 z m 15.149,-1.445 6.83,0.718 0.132,-1.252 -2.414,-0.254 1.963,-18.681 3.009,0.316 c 1.465,0.154 2.65,0.616 3.544,1.39 0.899,0.774 1.589,1.933 2.075,3.481 l 0.905,-0.232 -1.23,-6.355 -1.116,-0.117 0.028,0.883 -11.486,-1.207 -0.128,1.22 2.033,0.214 -1.98,18.838 -2.033,-0.214 -0.132,1.252 z m 17.829,1.739 4.289,1.15 3.845,-14.347 c 0.484,-1.808 1.192,-3.073 2.127,-3.788 0.934,-0.71 2.104,-0.88 3.506,-0.505 1.443,0.387 2.479,1.202 3.096,2.442 0.623,1.242 0.712,2.693 0.267,4.354 l -3.496,13.045 -1.975,-0.529 -0.325,1.215 4.274,1.145 5.228,-19.512 1.99,0.534 0.318,-1.185 -4.259,-1.142 -0.614,2.17 c -0.538,-1.072 -1.193,-1.948 -1.963,-2.621 -0.764,-0.672 -1.663,-1.146 -2.691,-1.421 -2,-0.536 -3.635,-0.41 -4.915,0.376 -1.275,0.788 -2.195,2.235 -2.759,4.341 l -3.642,13.592 -1.975,-0.529 -0.326,1.215 z m 24.368,6.222 3.688,1.719 12.295,-13.64 -1.842,18.515 3.454,1.611 0.532,-1.141 -1.682,-0.784 9.797,-16.332 1.548,0.722 0.519,-1.112 -5.683,-2.65 -0.518,1.112 2.062,0.962 -8.352,14.09 1.829,-18.486 -1.031,-0.481 -12.282,13.612 4.926,-15.688 1.824,0.851 0.519,-1.112 -4.481,-2.089 -0.519,1.111 1.364,0.636 -5.696,18.244 -1.739,-0.81 -0.532,1.14 z m 32.636,6.589 6.047,-9.312 2.37,1.539 c 1.495,0.971 2.392,2.141 2.693,3.505 0.303,1.372 -0.016,2.778 -0.961,4.233 -0.908,1.399 -2.065,2.247 -3.471,2.553 -1.402,0.303 -2.805,-0.002 -4.207,-0.913 l -2.471,-1.605 z m -0.754,1.161 1.429,0.928 c 1.055,0.685 1.717,1.447 1.983,2.288 0.269,0.838 0.124,1.687 -0.433,2.545 -0.534,0.822 -1.24,1.245 -2.122,1.266 -0.883,0.02 -1.927,-0.364 -3.137,-1.149 l -1.081,-0.703 3.361,-5.175 z m 4.025,2.177 c 1.87,0.97 3.581,1.3 5.131,0.993 1.549,-0.306 2.823,-1.229 3.82,-2.763 1.145,-1.764 1.489,-3.584 1.041,-5.463 -0.454,-1.882 -1.617,-3.431 -3.485,-4.645 l -6.701,-4.352 -0.668,1.029 1.715,1.114 -10.317,15.886 -1.715,-1.114 -0.685,1.056 5.281,3.429 c 1.64,1.065 3.078,1.593 4.31,1.574 1.231,-0.019 2.202,-0.571 2.904,-1.652 0.523,-0.805 0.732,-1.638 0.625,-2.502 -0.104,-0.861 -0.523,-1.727 -1.256,-2.59 z m 11.376,16.946 4.965,-11.218 5.932,5.729 -10.897,5.489 z m -1.856,0.751 1.901,1.836 19.169,-9.571 1.172,1.133 0.853,-0.882 -4.496,-4.342 -0.852,0.883 1.49,1.438 -5.179,2.601 -6.63,-6.403 2.373,-5.31 1.358,1.311 0.852,-0.882 -3.534,-3.412 -0.852,0.882 1.105,1.067 -8.73,19.651 z m 10.256,10.216 3.72,5.312 1.031,-0.722 -1.173,-1.674 5.359,-3.753 5.2,7.425 -5.36,3.753 -1.173,-1.675 -1.03,0.722 3.719,5.312 1.031,-0.722 -1.182,-1.687 15.517,-10.865 1.181,1.688 1.005,-0.704 -3.72,-5.312 -1.004,0.703 1.172,1.675 -9.022,6.318 -5.2,-7.425 9.023,-6.318 1.173,1.675 1.005,-0.704 -3.72,-5.313 -1.005,0.704 1.173,1.675 -15.517,10.865 -1.172,-1.675 -1.031,0.722 z" /><path
       id="path366"
       style="fill:#231f20;fill-opacity:1;fill-rule:evenodd;stroke:none"
       d="m 240.128,358.467 69.909,0 0,-1.466 -68.757,0 -1.152,1.466" /><path
       id="path368"
       style="fill:#231f20;fill-opacity:1;fill-rule:evenodd;stroke:none"
       d="m 259.137,344.049 51.015,0 0,-1.466 -48.815,0 -2.2,1.466" /><path
       id="path370"
       style="fill:#231f20;fill-opacity:1;fill-rule:evenodd;stroke:none"
       d="m 372.324,344.049 -54.075,0 0,-1.466 51.743,0 2.332,1.466" /><path
       id="path372"
       style="fill:#231f20;fill-opacity:1;fill-rule:evenodd;stroke:none"
       d="m 390.82,358.26 -72.571,0 0,-1.466 71.375,0 1.196,1.466" /><g
       transform="matrix(-0.227768,-0.903411,1.057639,-0.195451,0,0)"
       id="g374"><path
         id="path376"
         style="fill:#16563e;fill-opacity:1;fill-rule:evenodd;stroke:#16563e;stroke-width:0.65899998;stroke-linecap:butt;stroke-linejoin:miter;stroke-miterlimit:22.9260006;stroke-dasharray:none;stroke-opacity:1"
         d="m -430.724,126.296 c -1.962,-1.507 -2.245,-0.866 -2.426,-0.098 -0.155,0.657 0.324,4.625 0.367,4.835 0.115,0.56 0.473,2.144 0.597,2.749 0.355,1.732 0.882,3.457 1.994,5.12 0.815,1.22 1.592,2.502 2.126,3.876 0.47,1.206 1.319,2.094 1.986,3.083 1.062,1.573 2.035,3.356 3.074,4.784 0.346,0.477 0.87,0.651 1.199,1.1 -1.201,-2.184 -3.294,-5.88 -4.411,-9.739 -0.215,-0.741 -0.351,-1.51 -0.705,-2.252 -0.106,-0.223 -0.124,-0.477 -0.175,-0.722 -0.354,-1.714 -0.387,-3.611 -1.268,-5.168 -0.455,-0.801 -0.707,-1.745 -0.778,-2.806 -0.008,-0.116 -0.337,-0.504 -0.385,-0.619 -0.334,-0.804 -1.307,-1.839 -0.879,-2.548 0.372,-0.617 -0.303,-1.025 -0.316,-1.595 z" /></g><g
       transform="matrix(-0.540454,-0.800006,0.936658,-0.463809,0,0)"
       id="g378"><path
         id="path380"
         style="fill:#00a650;fill-opacity:1;fill-rule:evenodd;stroke:#00a650;stroke-width:0.65899998;stroke-linecap:butt;stroke-linejoin:miter;stroke-miterlimit:22.9260006;stroke-dasharray:none;stroke-opacity:1"
         d="m -463.838,-19.155 c -3.016,-2.317 -3.451,-1.332 -3.729,-0.151 -0.238,1.01 0.498,7.107 0.565,7.431 0.176,0.86 0.726,3.2936 0.917,4.2236 0.546,2.6625 1.356,5.3131 3.065,7.86974 1.253,1.87356 2.446,3.84376 3.267,5.95556 0.722,1.8543 2.028,3.2184 3.053,4.7381 1.631,2.418 3.127,5.158 4.723,7.352 0.534,0.733 1.338,1.001 1.845,1.69 -1.847,-3.356 -5.064,-9.035 -6.781,-14.9666 -0.33,-1.1386 -0.539,-2.3208 -1.083,-3.4611 -0.163,-0.3418 -0.191,-0.73271 -0.269,-1.10895 -0.545,-2.63335 -0.594,-5.54995 -1.949,-7.94185 -0.698,-1.232 -1.086,-2.6825 -1.195,-4.3125 -0.012,-0.178 -0.518,-0.775 -0.592,-0.951 -0.515,-1.237 -2.009,-2.826 -1.352,-3.916 0.572,-0.948 -0.466,-1.575 -0.485,-2.451 z" /></g><g
       transform="matrix(-0.540462,-0.800016,0.936646,-0.463804,0,0)"
       id="g382"><path
         id="path384"
         style="fill:#00a650;fill-opacity:1;fill-rule:evenodd;stroke:#00a650;stroke-width:0.65899998;stroke-linecap:butt;stroke-linejoin:miter;stroke-miterlimit:22.9260006;stroke-dasharray:none;stroke-opacity:1"
         d="m -480.97,-11.423 c -3.612,-2.775 -4.133,-1.595 -4.466,-0.181 -0.285,1.209 0.596,8.5107 0.676,8.8982 0.211,1.0304 0.87,3.9446 1.098,5.0582 0.654,3.1885 1.625,6.3625 3.671,9.4236 1.5,2.244 2.929,4.604 3.913,7.133 0.863,2.22 2.427,3.854 3.655,5.674 1.953,2.895 3.745,6.176 5.656,8.804 0.638,0.877 1.602,1.198 2.208,2.023 -2.211,-4.019 -6.063,-10.819 -8.119,-17.922 -0.395,-1.364 -0.645,-2.78 -1.297,-4.145 -0.195,-0.41 -0.229,-0.878 -0.322,-1.328 -0.652,-3.1536 -0.712,-6.6462 -2.335,-9.5106 -0.835,-1.4755 -1.3,-3.2126 -1.431,-5.1642 -0.014,-0.2133 -0.62,-0.9279 -0.708,-1.1393 -0.616,-1.4803 -2.406,-3.3835 -1.619,-4.689 0.684,-1.1351 -0.558,-1.8869 -0.58,-2.9349 z" /></g><g
       transform="matrix(-0.227758,-0.903374,1.057682,-0.195458,0,0)"
       id="g386"><path
         id="path388"
         style="fill:#16563e;fill-opacity:1;fill-rule:evenodd;stroke:#16563e;stroke-width:0.65899998;stroke-linecap:butt;stroke-linejoin:miter;stroke-miterlimit:22.9260006;stroke-dasharray:none;stroke-opacity:1"
         d="m -444.108,129.711 c -3.016,-2.317 -3.451,-1.332 -3.73,-0.151 -0.237,1.009 0.499,7.107 0.565,7.43 0.176,0.861 0.726,3.294 0.917,4.224 0.546,2.663 1.357,5.313 3.066,7.87 1.252,1.873 2.446,3.844 3.267,5.955 0.721,1.855 2.027,3.219 3.052,4.739 1.632,2.417 3.128,5.157 4.724,7.352 0.533,0.733 1.338,1 1.844,1.689 -1.847,-3.355 -5.063,-9.035 -6.78,-14.966 -0.33,-1.139 -0.539,-2.321 -1.083,-3.461 -0.163,-0.342 -0.191,-0.733 -0.269,-1.109 -0.545,-2.633 -0.595,-5.55 -1.95,-7.942 -0.698,-1.232 -1.085,-2.683 -1.195,-4.313 -0.012,-0.178 -0.518,-0.774 -0.591,-0.951 -0.515,-1.236 -2.009,-2.825 -1.352,-3.915 0.571,-0.948 -0.466,-1.576 -0.485,-2.451 z" /></g><g
       transform="matrix(-0.227762,-0.903385,1.057669,-0.195456,0,0)"
       id="g390"><path
         id="path392"
         style="fill:#16563e;fill-opacity:1;fill-rule:evenodd;stroke:#16563e;stroke-width:0.65899998;stroke-linecap:butt;stroke-linejoin:miter;stroke-miterlimit:22.9260006;stroke-dasharray:none;stroke-opacity:1"
         d="m -461.241,137.444 c -3.612,-2.775 -4.133,-1.594 -4.466,-0.181 -0.285,1.209 0.597,8.511 0.676,8.899 0.211,1.03 0.87,3.944 1.098,5.058 0.654,3.188 1.625,6.362 3.671,9.424 1.5,2.244 2.929,4.603 3.913,7.132 0.864,2.22 2.427,3.854 3.655,5.674 1.953,2.895 3.745,6.176 5.656,8.804 0.639,0.878 1.602,1.198 2.208,2.024 -2.211,-4.019 -6.063,-10.82 -8.119,-17.923 -0.395,-1.364 -0.645,-2.779 -1.297,-4.145 -0.195,-0.409 -0.228,-0.877 -0.322,-1.328 -0.652,-3.153 -0.712,-6.646 -2.335,-9.51 -0.835,-1.475 -1.299,-3.213 -1.431,-5.164 -0.014,-0.214 -0.62,-0.928 -0.708,-1.139 -0.616,-1.481 -2.405,-3.384 -1.619,-4.69 0.685,-1.135 -0.557,-1.886 -0.58,-2.935 z" /></g><g
       transform="matrix(-0.540459,-0.800013,0.93665,-0.463806,0,0)"
       id="g394"><path
         id="path396"
         style="fill:#00a650;fill-opacity:1;fill-rule:evenodd;stroke:#00a650;stroke-width:0.65899998;stroke-linecap:butt;stroke-linejoin:miter;stroke-miterlimit:22.9260006;stroke-dasharray:none;stroke-opacity:1"
         d="m -493.181,-5.0711 c -4.262,-3.2745 -4.877,-1.8821 -5.27,-0.2137 -0.336,1.4268 0.704,10.0428 0.797,10.5002 0.249,1.2158 1.027,4.6546 1.297,5.9686 0.771,3.762 1.916,7.508 4.331,11.121 1.77,2.647 3.456,5.431 4.617,8.415 1.02,2.62 2.864,4.548 4.313,6.696 2.305,3.416 4.419,7.288 6.675,10.388 0.753,1.036 1.89,1.414 2.606,2.389 -2.61,-4.743 -7.155,-12.768 -9.582,-21.15 -0.466,-1.609 -0.761,-3.279 -1.529,-4.89 -0.231,-0.483 -0.271,-1.036 -0.381,-1.567 -0.77,-3.721 -0.84,-7.843 -2.755,-11.223 -0.986,-1.7408 -1.534,-3.7905 -1.688,-6.0935 -0.017,-0.2519 -0.732,-1.0948 -0.836,-1.3442 -0.727,-1.747 -2.839,-3.992689 -1.91,-5.533 0.807,-1.3395 -0.659,-2.2264 -0.685,-3.4634 z" /></g><g
       transform="matrix(-0.22776,-0.903381,1.057674,-0.195457,0,0)"
       id="g398"><path
         id="path400"
         style="fill:#16563e;fill-opacity:1;fill-rule:evenodd;stroke:#16563e;stroke-width:0.65899998;stroke-linecap:butt;stroke-linejoin:miter;stroke-miterlimit:22.9260006;stroke-dasharray:none;stroke-opacity:1"
         d="m -473.452,143.796 c -4.262,-3.275 -4.877,-1.882 -5.27,-0.214 -0.336,1.427 0.704,10.043 0.798,10.5 0.249,1.216 1.026,4.655 1.296,5.969 0.771,3.762 1.917,7.508 4.332,11.12 1.77,2.648 3.456,5.432 4.617,8.416 1.019,2.62 2.864,4.548 4.313,6.695 2.305,3.417 4.419,7.288 6.674,10.389 0.754,1.036 1.89,1.414 2.606,2.388 -2.61,-4.742 -7.155,-12.767 -9.581,-21.149 -0.466,-1.609 -0.761,-3.279 -1.53,-4.89 -0.231,-0.484 -0.27,-1.036 -0.38,-1.568 -0.77,-3.72 -0.841,-7.842 -2.755,-11.222 -0.986,-1.741 -1.534,-3.791 -1.689,-6.094 -0.017,-0.251 -0.732,-1.094 -0.836,-1.344 -0.727,-1.747 -2.838,-3.993 -1.91,-5.533 0.807,-1.34 -0.658,-2.226 -0.685,-3.463 z" /></g><path
       id="path402"
       style="fill:#992326;fill-opacity:1;fill-rule:evenodd;stroke:#992326;stroke-width:0.21600001;stroke-linecap:butt;stroke-linejoin:miter;stroke-miterlimit:22.9260006;stroke-dasharray:none;stroke-opacity:1"
       d="m 308.313,373.985 12.609,0 0.192,-45.596 c -4.715,-0.595 -9.014,-0.894 -12.706,-0.136 l -0.095,45.732 z" /></g></svg>